<?xml version="1.0" standalone="no"?>
<!DOCTYPE svg PUBLIC "-//W3C//DTD SVG 20010904//EN"
 "http://www.w3.org/TR/2001/REC-SVG-20010904/DTD/svg10.dtd">
<svg version="1.0" xmlns="http://www.w3.org/2000/svg"
 width="500.000000pt" height="500.000000pt" viewBox="0 0 500.000000 500.000000"
 preserveAspectRatio="xMidYMid meet">

<g transform="translate(0.000000,500.000000) scale(0.100000,-0.100000)"
fill="#000000" stroke="none">
<path d="M2341 4989 c-79 -14 -225 -65 -300 -104 -88 -47 -182 -123 -261 -212
-36 -40 -70 -71 -77 -69 -6 3 -58 10 -115 16 -345 38 -671 -91 -860 -339 -65
-87 -133 -226 -159 -331 -19 -73 -21 -103 -16 -239 4 -135 8 -167 31 -236 98
-290 307 -478 640 -575 l90 -26 12 -48 c40 -157 63 -435 72 -881 7 -326 9
-353 28 -385 11 -19 31 -41 45 -47 18 -10 248 -13 1019 -13 927 0 997 1 1030
18 58 28 66 59 74 264 16 411 46 833 71 995 8 51 15 95 15 97 0 2 19 7 42 11
98 17 267 89 368 158 60 41 164 141 206 198 48 66 100 175 126 266 32 109 31
329 -1 448 -24 89 -83 220 -133 293 -130 191 -346 325 -592 368 -96 17 -288
14 -371 -6 -37 -9 -42 -8 -63 18 -157 184 -346 303 -549 348 -85 18 -301 26
-372 13z m377 -239 c164 -46 278 -116 395 -240 61 -65 81 -80 97 -75 43 14
229 22 300 13 314 -37 562 -244 660 -553 17 -52 24 -104 27 -201 5 -122 3
-139 -21 -225 -35 -120 -81 -203 -163 -290 -106 -112 -244 -193 -398 -234
l-80 -22 -12 -59 c-15 -75 -41 -358 -49 -534 -3 -74 -8 -144 -9 -155 -2 -11
-4 -23 -4 -27 -1 -4 -433 -7 -961 -7 -737 0 -960 3 -960 12 0 7 -5 100 -10
207 -12 231 -25 367 -49 481 l-17 84 -54 12 c-239 53 -436 198 -533 393 -66
133 -82 199 -82 350 0 151 16 217 81 348 106 211 308 361 548 407 83 16 259
19 339 6 l48 -8 102 102 c92 92 113 108 209 154 145 71 244 92 403 87 80 -3
144 -12 193 -26z m742 -2814 c0 -86 -18 -158 -45 -186 l-25 -25 -879 -3 c-551
-1 -888 1 -904 7 -46 18 -61 55 -65 163 l-4 98 961 0 961 0 0 -54z"/>
<path d="M1961 4381 c-12 -12 -21 -32 -21 -46 0 -14 64 -136 145 -276 89 -153
144 -258 140 -268 -6 -16 -8 -13 -199 315 -123 213 -138 229 -189 203 -28 -15
-37 -28 -37 -57 0 -12 65 -136 145 -274 84 -144 143 -258 140 -266 -3 -8 -7
-13 -9 -11 -2 2 -67 114 -145 249 -134 232 -175 290 -205 290 -26 0 -66 -41
-66 -67 0 -24 362 -666 394 -701 7 -7 52 -30 101 -51 l88 -38 112 -194 c369
-640 530 -917 546 -941 26 -37 96 -68 152 -68 50 0 93 15 101 36 3 7 -159 297
-360 644 l-365 632 12 101 12 102 -197 340 c-109 187 -201 343 -205 347 -3 4
-21 10 -38 14 -24 5 -36 1 -52 -15z m244 -368 c104 -181 189 -330 190 -333 1
-3 -3 -49 -10 -102 l-11 -98 56 -97 c31 -54 192 -333 358 -620 166 -288 302
-525 302 -528 0 -3 -17 -5 -39 -5 -51 0 -98 33 -134 95 -16 28 -166 287 -334
576 l-304 527 -92 38 -92 37 -190 329 c-104 180 -191 333 -193 338 -2 6 2 10
10 10 7 0 73 -105 147 -233 162 -281 178 -307 194 -307 28 1 92 47 91 66 0 11
-68 138 -152 282 -84 144 -152 264 -152 267 0 3 6 5 13 5 7 0 82 -120 166
-266 85 -146 160 -268 167 -271 16 -6 93 34 101 53 5 14 -11 44 -204 377 -57
98 -103 180 -103 183 0 2 6 4 13 4 7 0 98 -147 202 -327z"/>
<path d="M3054 4332 c-139 -59 -283 -176 -352 -286 -69 -108 -94 -193 -99
-331 -2 -78 1 -139 10 -175 13 -55 13 -55 -22 -113 -31 -53 -33 -60 -18 -74
20 -21 30 -13 73 60 l37 62 -17 80 c-31 153 -12 289 61 427 64 123 211 248
355 303 57 21 97 15 144 -20 47 -36 59 -81 58 -210 -2 -195 -55 -329 -178
-451 -83 -83 -139 -118 -249 -155 l-81 -27 -68 -117 c-52 -91 -65 -121 -57
-132 23 -26 38 -11 99 96 l61 109 63 20 c167 51 312 174 390 333 59 119 80
223 74 365 -5 122 -28 177 -89 220 -52 35 -134 43 -195 16z"/>
<path d="M3015 4202 c-67 -32 -190 -142 -183 -163 10 -30 41 -20 92 29 65 62
100 85 156 104 33 11 45 20 45 34 0 30 -42 28 -110 -4z"/>
<path d="M2363 3028 c-9 -11 -100 -169 -390 -670 -40 -70 -73 -132 -73 -137 0
-19 58 -41 105 -41 56 0 102 19 137 56 37 40 369 615 366 634 -2 8 -12 15 -23
15 -15 0 -59 -67 -196 -305 -97 -167 -188 -313 -201 -323 -14 -11 -47 -22 -73
-25 -42 -4 -47 -3 -42 11 4 10 102 182 219 384 116 202 212 376 212 387 1 24
-26 33 -41 14z"/>
<path d="M2948 1375 c-114 -23 -214 -104 -267 -215 -23 -48 -26 -68 -26 -155
0 -89 3 -106 28 -156 95 -194 306 -273 502 -189 88 38 178 142 206 238 12 41
13 42 58 42 25 0 51 4 57 8 21 13 34 52 28 77 -8 33 -32 45 -87 45 -44 0 -45
0 -56 44 -23 94 -119 201 -218 243 -52 22 -162 31 -225 18z m192 -96 c61 -28
107 -64 134 -107 123 -196 2 -444 -225 -460 -122 -8 -223 48 -284 159 -26 47
-29 65 -30 134 0 68 4 88 27 131 33 62 104 127 161 148 63 22 163 20 217 -5z"/>
<path d="M2375 459 c-16 -5 -68 -31 -115 -59 -169 -100 -241 -131 -322 -137
-96 -7 -208 17 -273 58 -26 16 -50 28 -53 25 -3 -3 11 -29 30 -58 156 -235
424 -301 704 -173 40 18 90 51 112 73 l40 40 37 -38 c74 -76 252 -140 388
-140 170 0 324 82 421 224 46 66 44 85 -4 52 -55 -37 -127 -58 -220 -63 -91
-6 -173 14 -250 59 -276 162 -290 166 -363 116 -13 -9 -20 -10 -25 -2 -9 15
-47 34 -64 33 -7 0 -26 -5 -43 -10z"/>
</g>
</svg>
