<?xml version="1.0" encoding="UTF-8"?>
<svg version="1.1" xmlns="http://www.w3.org/2000/svg" width="500" height="500">
<path d="M0 0 C165 0 330 0 500 0 C500 165 500 330 500 500 C335 500 170 500 0 500 C0 335 0 170 0 0 Z " fill="#F2F5FA" transform="translate(0,0)"/>
<path d="M0 0 C1 1 1 1 1.11352539 4.87719727 C1.11336621 6.60694167 1.10766849 8.33669081 1.09765625 10.06640625 C1.0962413 10.97502914 1.09482635 11.88365204 1.09336853 12.81980896 C1.08775193 15.73407221 1.07519665 18.64825981 1.0625 21.5625 C1.05748714 23.53320202 1.05292386 25.50390524 1.04882812 27.47460938 C1.03777711 32.31643559 1.02050138 37.15820495 1 42 C2.98 42.495 2.98 42.495 5 43 C5 43.99 5 44.98 5 46 C0.05 46 -4.9 46 -10 46 C-10.33 45.34 -10.66 44.68 -11 44 C-11.99 44.99 -11.99 44.99 -13 46 C-16.625 46.125 -16.625 46.125 -20 46 C-20.99 44.02 -20.99 44.02 -22 42 C-22.78375 42.66 -23.5675 43.32 -24.375 44 C-28.60115803 46.85442177 -33.08094834 46.51645809 -38 46 C-38.99 45.67 -39.98 45.34 -41 45 C-41.33 45.99 -41.66 46.98 -42 48 C-42.99 47.505 -42.99 47.505 -44 47 C-45.35070126 46.87310404 -46.70657744 46.79829657 -48.0625 46.75390625 C-48.85914063 46.72103516 -49.65578125 46.68816406 -50.4765625 46.65429688 C-52.15871678 46.59310396 -53.84101747 46.53581137 -55.5234375 46.48242188 C-56.32007813 46.44826172 -57.11671875 46.41410156 -57.9375 46.37890625 C-59.03384766 46.34132202 -59.03384766 46.34132202 -60.15234375 46.30297852 C-62 46 -62 46 -64 44 C-64.928125 44.33 -65.85625 44.66 -66.8125 45 C-73.17794718 46.78543031 -79.57178749 47.19280615 -85.5625 44.25 C-88.79024002 41.27054768 -89.84853135 39.36321785 -90.3359375 34.9765625 C-90.4671869 23.71536395 -90.4671869 23.71536395 -86 19 C-82.01821354 15.42328706 -78.88018529 15.51131422 -73.69921875 15.62890625 C-69.84121502 16.15931197 -67.97698672 17.55734423 -65 20 C-64.34 20 -63.68 20 -63 20 C-61.89163577 18.11683841 -61.89163577 18.11683841 -61 16 C-61.33 15.34 -61.66 14.68 -62 14 C-61.01 14 -60.02 14 -59 14 C-58.44531238 11.01855407 -58 8.22509466 -58 5.1875 C-58 3 -58 3 -57 2 C-54 1.875 -54 1.875 -51 2 C-50 3 -50 3 -50 6.9375 C-50.020625 7.64777344 -50.04125 8.35804688 -50.0625 9.08984375 C-50.13026339 11.087577 -50.13026339 11.087577 -49 13 C-49.66 13 -50.32 13 -51 13 C-50.34 13.66 -49.68 14.32 -49 15 C-46.83333333 14.16666667 -46.83333333 14.16666667 -46 12 C-45.34 12.66 -44.68 13.32 -44 14 C-43.01 14 -42.02 14 -41 14 C-39.7922442 17.62326739 -40.45688872 18.64146369 -42 22 C-41.02061173 21.02061173 -40.07230236 20.01045585 -39.125 19 C-35.33120828 15.4293725 -31.38979259 15.72688987 -26.4453125 15.77734375 C-23.28286608 16.06529814 -21.41965929 16.95841247 -19 19 C-16.86395692 22.20406462 -16.75791092 22.99600747 -16.8046875 26.66796875 C-16.81113281 27.56064453 -16.81757813 28.45332031 -16.82421875 29.37304688 C-16.84935547 30.76620117 -16.84935547 30.76620117 -16.875 32.1875 C-16.88402344 33.12787109 -16.89304687 34.06824219 -16.90234375 35.03710938 C-16.92590944 37.35832968 -16.95880884 39.67903644 -17 42 C-16.01 42 -15.02 42 -14 42 C-14 40.68 -14 39.36 -14 38 C-12.68 38 -11.36 38 -10 38 C-10 39.32 -10 40.64 -10 42 C-8.68 42 -7.36 42 -6 42 C-6 29.79 -6 17.58 -6 5 C-7.32 5 -8.64 5 -10 5 C-10 3.68 -10 2.36 -10 1 C-6.60169639 0.22324489 -3.48880949 -0.19382275 0 0 Z " fill="#ECEFF2" transform="translate(477,188)"/>
<path d="M0 0 C0.495 6.93 0.495 6.93 1 14 C1.99 13.34 2.98 12.68 4 12 C4.99 12 5.98 12 7 12 C6.67 13.32 6.34 14.64 6 16 C7.06541016 15.87431641 7.06541016 15.87431641 8.15234375 15.74609375 C9.07144531 15.64425781 9.99054688 15.54242188 10.9375 15.4375 C11.85402344 15.33308594 12.77054688 15.22867188 13.71484375 15.12109375 C14.84599609 15.06115234 14.84599609 15.06115234 16 15 C17.74506615 16.74506615 17.23282784 19.19039143 17.31640625 21.56640625 C17.35830078 22.69111328 17.40019531 23.81582031 17.44335938 24.97460938 C17.48267578 26.15861328 17.52199219 27.34261719 17.5625 28.5625 C17.60568359 29.75037109 17.64886719 30.93824219 17.69335938 32.16210938 C17.79983546 35.10794784 17.90184841 38.0538743 18 41 C18.99 41.33 19.98 41.66 21 42 C21 42.99 21 43.98 21 45 C16.05 45 11.1 45 6 45 C5.505 43.02 5.505 43.02 5 41 C5 42.32 5 43.64 5 45 C-0.37704918 46.3442623 -0.37704918 46.3442623 -3.375 44.6875 C-5 43 -5 43 -5 41 C-5.66 41 -6.32 41 -7 41 C-7.33 41.99 -7.66 42.98 -8 44 C-11.72125554 46.25530639 -14.91193696 46.20987803 -19.0703125 45.54296875 C-22.73498675 44.51181547 -25.11231443 42.41095285 -27.11328125 39.23046875 C-29.29995229 33.73007595 -28.67642446 26.99367208 -26.8125 21.5 C-24.65677398 18.5265848 -23.24247225 16.79370805 -20 15 C-15.95354138 14.54684769 -11.70721667 14.14639167 -8 16 C-7.67 12.04 -7.34 8.08 -7 4 C-8.32 4 -9.64 4 -11 4 C-11 2.68 -11 1.36 -11 0 C-6.68380697 -0.90338924 -4.49202386 -0.89840477 0 0 Z " fill="#131416" transform="translate(191,189)"/>
<path d="M0 0 C1.65 0 3.3 0 5 0 C5 2.64 5 5.28 5 8 C7.97 8 10.94 8 14 8 C14 9.32 14 10.64 14 12 C11.03 12 8.06 12 5 12 C5.495 22.395 5.495 22.395 6 33 C7.65 33.33 9.3 33.66 11 34 C11.66 32.68 12.32 31.36 13 30 C13.99 30 14.98 30 16 30 C15.33333333 33.33333333 14.66666667 36.66666667 14 40 C11.03 40 8.06 40 5 40 C4.505 40.99 4.505 40.99 4 42 C2.68 41.67 1.36 41.34 0 41 C0 40.01 0 39.02 0 38 C-0.598125 38.495 -1.19625 38.99 -1.8125 39.5 C-4 41 -4 41 -7 41 C-7 40.34 -7 39.68 -7 39 C-13.93 38.505 -13.93 38.505 -21 38 C-21 37.01 -21 36.02 -21 35 C-19.515 34.505 -19.515 34.505 -18 34 C-17.94609643 31.06225537 -17.9063745 28.12549768 -17.875 25.1875 C-17.85824219 24.35412109 -17.84148437 23.52074219 -17.82421875 22.66210938 C-17.81777344 21.85966797 -17.81132812 21.05722656 -17.8046875 20.23046875 C-17.79421387 19.49207764 -17.78374023 18.75368652 -17.77294922 17.99291992 C-17.88258521 15.68109324 -17.88258521 15.68109324 -20 13 C-23.70418498 12.67789696 -26.36418334 13.09104583 -30 14 C-30 20.93 -30 27.86 -30 35 C-28.68 35 -27.36 35 -26 35 C-26 35.99 -26 36.98 -26 38 C-30.95 38 -35.9 38 -41 38 C-41 37.01 -41 36.02 -41 35 C-39.515 34.505 -39.515 34.505 -38 34 C-38 27.07 -38 20.14 -38 13 C-38.99 12.67 -39.98 12.34 -41 12 C-41 11.01 -41 10.02 -41 9 C-37.7 8.67 -34.4 8.34 -31 8 C-31 8.99 -31 9.98 -31 11 C-30.195625 10.505 -29.39125 10.01 -28.5625 9.5 C-23.02194924 7.16713652 -17.74915965 7.38711358 -12 9 C-11.34 7.68 -10.68 6.36 -10 5 C-9.01 6.485 -9.01 6.485 -8 8 C-4.41642759 8.25015873 -4.41642759 8.25015873 -1 8 C-0.67 5.36 -0.34 2.72 0 0 Z " fill="#EAEDF1" transform="translate(288,196)"/>
<path d="M0 0 C0.66 0.99 1.32 1.98 2 3 C2.66 2.01 3.32 1.02 4 0 C6.96875 -0.36328125 6.96875 -0.36328125 10.5 -0.3125 C12.24796875 -0.30669922 12.24796875 -0.30669922 14.03125 -0.30078125 C17 0 17 0 19 2 C19.5671875 1.67773438 20.134375 1.35546875 20.71875 1.0234375 C24.41424767 -0.63447413 28.02819435 -0.61329352 32 0 C34.50160818 1.87620613 35.61945652 3.23891303 37 6 C37.15123831 7.5195764 37.24881693 9.04472502 37.31640625 10.5703125 C37.35830078 11.46621094 37.40019531 12.36210937 37.44335938 13.28515625 C37.48267578 14.22230469 37.52199219 15.15945312 37.5625 16.125 C37.60568359 17.06988281 37.64886719 18.01476562 37.69335938 18.98828125 C37.79959072 21.32537092 37.90163176 23.6625683 38 26 C38.99 26.33 39.98 26.66 41 27 C41 27.99 41 28.98 41 30 C36.38 30 31.76 30 27 30 C27 29.01 27 28.02 27 27 C27.99 26.67 28.98 26.34 30 26 C30.05791844 22.87507749 30.09356746 19.75029234 30.125 16.625 C30.14175781 15.73554688 30.15851562 14.84609375 30.17578125 13.9296875 C30.18222656 13.07890625 30.18867187 12.228125 30.1953125 11.3515625 C30.20578613 10.56604004 30.21625977 9.78051758 30.22705078 8.97119141 C30.17990127 6.765535 30.17990127 6.765535 28 5 C24.30767418 4.75919614 21.62296546 5.09425864 18 6 C18.33 12.6 18.66 19.2 19 26 C19.99 26.33 20.98 26.66 22 27 C22 27.99 22 28.98 22 30 C17.05 30 12.1 30 7 30 C6.67 29.34 6.34 28.68 6 28 C5.67 28.66 5.34 29.32 5 30 C-0.28 30 -5.56 30 -11 30 C-11 29.01 -11 28.02 -11 27 C-9.68 26.34 -8.36 25.68 -7 25 C-7 18.4 -7 11.8 -7 5 C-8.32 4.67 -9.64 4.34 -11 4 C-11 3.01 -11 2.02 -11 1 C-7.30992118 -0.18082522 -3.85119054 -0.28527337 0 0 Z " fill="#F2F5F8" transform="translate(29,204)"/>
<path d="M0 0 C0.66 0.66 1.32 1.32 2 2 C1.625 4.125 1.625 4.125 1 6 C-0.32 6.33 -1.64 6.66 -3 7 C-3.33 6.01 -3.66 5.02 -4 4 C-4.66 4 -5.32 4 -6 4 C-5.67 4.66 -5.34 5.32 -5 6 C-4.39212476 10.90642155 -4.21193173 14.73909076 -6.875 19 C-10.5508288 21.35253043 -13.60901188 21.96659775 -17.890625 22.54296875 C-18.58671875 22.69378906 -19.2828125 22.84460938 -20 23 C-20.33 23.66 -20.66 24.32 -21 25 C-17.41783749 26.79108125 -13.20953956 26.75237914 -9.26171875 27.20703125 C-5.54353871 28.11097203 -3.68057185 29.29474517 -1 32 C-0.375 35.4375 -0.375 35.4375 -1 39 C-4.11193762 43.11874096 -6.96989181 44.97534833 -12 46 C-23.31083032 46.93285199 -23.31083032 46.93285199 -28 43 C-30 41 -30 41 -30.3125 37.0625 C-30.24802944 34.32994009 -30.20018442 33.29117734 -28.625 31 C-27 30 -27 30 -25 30 C-25.20625 28.906875 -25.4125 27.81375 -25.625 26.6875 C-26 23 -26 23 -24 20 C-24.639375 19.731875 -25.27875 19.46375 -25.9375 19.1875 C-28 18 -28 18 -29 15 C-29.66244443 9.14840753 -29.66244443 9.14840753 -27.98828125 6.24609375 C-25.82255391 3.54706419 -24.31070508 2.10356836 -21 1 C-19.33541327 0.90691456 -17.66718003 0.87003815 -16 0.875 C-15.13375 0.87242187 -14.2675 0.86984375 -13.375 0.8671875 C-11 1 -11 1 -8 2 C-4.77626323 -0.14915785 -3.73296326 -0.38286803 0 0 Z " fill="#131517" transform="translate(103,203)"/>
<path d="M0 0 C1 1 1 1 1.11352539 4.87719727 C1.11336621 6.60694167 1.10766849 8.33669081 1.09765625 10.06640625 C1.0962413 10.97502914 1.09482635 11.88365204 1.09336853 12.81980896 C1.08775193 15.73407221 1.07519665 18.64825981 1.0625 21.5625 C1.05748714 23.53320202 1.05292386 25.50390524 1.04882812 27.47460938 C1.03777711 32.31643559 1.02050138 37.15820495 1 42 C2.32 42.33 3.64 42.66 5 43 C5 43.99 5 44.98 5 46 C0.05 46 -4.9 46 -10 46 C-10.33 45.34 -10.66 44.68 -11 44 C-11.66 44.66 -12.32 45.32 -13 46 C-16.625 46.125 -16.625 46.125 -20 46 C-20.66 44.68 -21.32 43.36 -22 42 C-22.78375 42.66 -23.5675 43.32 -24.375 44 C-28.62838232 46.83558822 -33.06430328 46.81979894 -38 46 C-40.625 44.4375 -40.625 44.4375 -42 42 C-42.5 38.5 -42.5 38.5 -42 35 C-39.01675522 31.26370313 -35.57569581 29.65330616 -31.25 27.75 C-29.49429687 26.96882813 -29.49429687 26.96882813 -27.703125 26.171875 C-26.81109375 25.78515625 -25.9190625 25.3984375 -25 25 C-25 23.68 -25 22.36 -25 21 C-27.70879335 19.64560332 -30.00933268 19.93498549 -33 20 C-32.938125 21.175625 -32.938125 21.175625 -32.875 22.375 C-33 25 -33 25 -35 27 C-37.625 26.625 -37.625 26.625 -40 26 C-40.36627907 20.50581395 -40.36627907 20.50581395 -38.6875 18.1875 C-34.34712362 15.13316107 -29.07478038 15.53791936 -24 16 C-20.31376989 17.61272567 -19.24645 18.630325 -17 22 C-16.77294922 24.17651367 -16.77294922 24.17651367 -16.8046875 26.66796875 C-16.81113281 27.56064453 -16.81757813 28.45332031 -16.82421875 29.37304688 C-16.84097656 30.30181641 -16.85773438 31.23058594 -16.875 32.1875 C-16.88402344 33.12787109 -16.89304687 34.06824219 -16.90234375 35.03710938 C-16.92590944 37.35832968 -16.95880884 39.67903644 -17 42 C-16.01 42 -15.02 42 -14 42 C-14 40.68 -14 39.36 -14 38 C-12.68 38 -11.36 38 -10 38 C-10 39.32 -10 40.64 -10 42 C-8.68 42 -7.36 42 -6 42 C-6 29.79 -6 17.58 -6 5 C-7.32 5 -8.64 5 -10 5 C-10 3.68 -10 2.36 -10 1 C-6.60169639 0.22324489 -3.48880949 -0.19382275 0 0 Z " fill="#242526" transform="translate(477,188)"/>
<path d="M0 0 C0.33 0.99 0.66 1.98 1 3 C1.804375 2.2575 1.804375 2.2575 2.625 1.5 C5.70309234 -0.44405832 7.42402849 -0.608676 11 0 C12.8125 2.5 12.8125 2.5 14 5 C14.33 5 14.66 5 15 5 C15.33 4.34 15.66 3.68 16 3 C18.32206525 2.29508733 20.65593068 1.62787571 23 1 C23.33 0.67 23.66 0.34 24 0 C34.14206461 -1.08887197 34.14206461 -1.08887197 37.90625 1.1171875 C39.25 2.5 39.25 2.5 41 5 C40.34 5.33 39.68 5.66 39 6 C39 6.66 39 7.32 39 8 C36.53229066 7.57453287 35.28800359 7.31304738 33.5625 5.4375 C32.03987677 3.76722884 32.03987677 3.76722884 29.5 3.625 C27.02270568 3.83195598 27.02270568 3.83195598 25.25 5.0625 C23.42094252 7.89753909 23.31245191 10.68800975 23 14 C24.65 14 26.3 14 28 14 C28 14.33 28 14.66 28 15 C26.02 15 24.04 15 22 15 C22.42423244 16.46224799 22.86490245 17.91973412 23.3125 19.375 C23.55613281 20.18710938 23.79976562 20.99921875 24.05078125 21.8359375 C24.91368185 24.33184629 24.91368185 24.33184629 28 26 C30.8157766 26.06573798 33.20318424 25.54131918 36 25 C36.33 24.34 36.66 23.68 37 23 C38.65 23 40.3 23 42 23 C40.59283258 26.40065459 39.1480057 28.08755968 36 30 C30.75390347 30.81102607 24.95117454 31.14935297 20.375 28.125 C18.88128632 26.78851934 17.41727928 25.41727928 16 24 C12.76936633 23.65977445 12.76936633 23.65977445 10.375 26.4375 C9.59125 27.283125 8.8075 28.12875 8 29 C7 30 7 30 3.18359375 30.09765625 C1.60153318 30.09098089 0.01948841 30.07901875 -1.5625 30.0625 C-2.36880859 30.05798828 -3.17511719 30.05347656 -4.00585938 30.04882812 C-6.00393756 30.03700518 -8.00197783 30.01906914 -10 30 C-10 29.01 -10 28.02 -10 27 C-9.01 26.67 -8.02 26.34 -7 26 C-7 19.07 -7 12.14 -7 5 C-7.99 4.67 -8.98 4.34 -10 4 C-10 3.01 -10 2.02 -10 1 C-6.61981469 -0.04005702 -3.5219721 -0.08004482 0 0 Z " fill="#F3F6FB" transform="translate(116,204)"/>
<path d="M0 0 C3.707777 1.82569248 5.7214923 4.58223845 8 8 C8.62420523 13.43639207 9.32957134 19.83590284 6.25 24.625 C1.33539284 29.8126409 1.33539284 29.8126409 -2.83984375 30.3984375 C-4.37318359 30.38683594 -4.37318359 30.38683594 -5.9375 30.375 C-6.95714844 30.38273437 -7.97679687 30.39046875 -9.02734375 30.3984375 C-12.39821645 29.94662539 -14.26537596 28.98881748 -17 27 C-20.64723463 22.22086496 -20.6088573 16.94853748 -20.49609375 11.14453125 C-19.7618797 6.49065481 -17.66588526 3.84913362 -14 1 C-9.79897594 -1.10051203 -4.5624762 -0.54201741 0 0 Z " fill="#0D1011" transform="translate(374,204)"/>
<path d="M0 0 C2.79692375 1.36179808 3.91712745 2.57936433 6 5 C7 8 7 8 7 17 C0.4 17 -6.2 17 -13 17 C-10.71183213 23.53576165 -10.71183213 23.53576165 -8 26 C-3.39175968 26.50089569 -1.53727166 25.82981733 2 23 C3.32 23 4.64 23 6 23 C4.53284672 27.6459854 4.53284672 27.6459854 2.2890625 29.13671875 C-2.31646758 30.87361661 -7.17516176 30.63213121 -12 30 C-15.46091336 28.40163925 -17.34912047 26.03549016 -19.375 22.8125 C-20.76313755 16.56588103 -21.08350354 11.11568055 -17.6875 5.5 C-13.20328151 -1.07146733 -7.40712608 -0.97719341 0 0 Z " fill="#07080B" transform="translate(236,204)"/>
<path d="M0 0 C-0.33 1.32 -0.66 2.64 -1 4 C0.06541016 3.87431641 0.06541016 3.87431641 1.15234375 3.74609375 C2.07144531 3.64425781 2.99054688 3.54242188 3.9375 3.4375 C5.31228516 3.28087891 5.31228516 3.28087891 6.71484375 3.12109375 C7.46894531 3.08113281 8.22304687 3.04117188 9 3 C10.74506615 4.74506615 10.23282784 7.19039143 10.31640625 9.56640625 C10.35830078 10.69111328 10.40019531 11.81582031 10.44335938 12.97460938 C10.48267578 14.15861328 10.52199219 15.34261719 10.5625 16.5625 C10.60568359 17.75037109 10.64886719 18.93824219 10.69335938 20.16210938 C10.79983546 23.10794784 10.90184841 26.0538743 11 29 C11.99 29.33 12.98 29.66 14 30 C14 30.99 14 31.98 14 33 C9.05 33 4.1 33 -1 33 C-1.33 31.68 -1.66 30.36 -2 29 C-2.33 30.32 -2.66 31.64 -3 33 C-3 32.01 -3 31.02 -3 30 C-4.32 29.67 -5.64 29.34 -7 29 C-7.02898816 25.06251542 -7.04679464 21.12505821 -7.0625 17.1875 C-7.07087891 16.06794922 -7.07925781 14.94839844 -7.08789062 13.79492188 C-7.09111328 12.72177734 -7.09433594 11.64863281 -7.09765625 10.54296875 C-7.10289307 9.55321045 -7.10812988 8.56345215 -7.11352539 7.54370117 C-7 5 -7 5 -6 2 C-3 0 -3 0 0 0 Z " fill="#E9EBEF" transform="translate(198,201)"/>
<path d="M0 0 C0.66 0.66 1.32 1.32 2 2 C2.5671875 1.67773438 3.134375 1.35546875 3.71875 1.0234375 C7.41424767 -0.63447413 11.02819435 -0.61329352 15 0 C17.50160818 1.87620613 18.61945652 3.23891303 20 6 C20.15123831 7.5195764 20.24881693 9.04472502 20.31640625 10.5703125 C20.35830078 11.46621094 20.40019531 12.36210937 20.44335938 13.28515625 C20.48267578 14.22230469 20.52199219 15.15945312 20.5625 16.125 C20.60568359 17.06988281 20.64886719 18.01476562 20.69335938 18.98828125 C20.79959072 21.32537092 20.90163176 23.6625683 21 26 C21.99 26.33 22.98 26.66 24 27 C24 27.99 24 28.98 24 30 C19.38 30 14.76 30 10 30 C10 29.01 10 28.02 10 27 C10.99 26.67 11.98 26.34 13 26 C13.05791844 22.87507749 13.09356746 19.75029234 13.125 16.625 C13.14175781 15.73554688 13.15851562 14.84609375 13.17578125 13.9296875 C13.18222656 13.07890625 13.18867187 12.228125 13.1953125 11.3515625 C13.20578613 10.56604004 13.21625977 9.78051758 13.22705078 8.97119141 C13.17990127 6.765535 13.17990127 6.765535 11 5 C7.30767418 4.75919614 4.62296546 5.09425864 1 6 C1.33 12.6 1.66 19.2 2 26 C2.99 26.33 3.98 26.66 5 27 C5 27.99 5 28.98 5 30 C0.05 30 -4.9 30 -10 30 C-10 29.01 -10 28.02 -10 27 C-9.01 26.67 -8.02 26.34 -7 26 C-6.67 18.74 -6.34 11.48 -6 4 C-7.32 4 -8.64 4 -10 4 C-10 3.01 -10 2.02 -10 1 C-6.60598928 0.22422612 -3.48397425 -0.2824844 0 0 Z " fill="#08090B" transform="translate(46,204)"/>
<path d="M0 0 C0 0.99 0 1.98 0 3 C0.804375 2.505 1.60875 2.01 2.4375 1.5 C6.77709689 -0.32719869 10.35171445 -0.81300812 15 0 C18.03215675 2.19831364 18.81654398 3.44963194 20 7 C20.14573058 8.47965926 20.24663268 9.96403843 20.31640625 11.44921875 C20.35830078 12.29677734 20.40019531 13.14433594 20.44335938 14.01757812 C20.48267578 14.89865234 20.52199219 15.77972656 20.5625 16.6875 C20.60568359 17.58017578 20.64886719 18.47285156 20.69335938 19.39257812 C20.79935353 21.59490108 20.90142051 23.79733473 21 26 C21.66 26.33 22.32 26.66 23 27 C23 27.99 23 28.98 23 30 C18.71 30 14.42 30 10 30 C10 29.01 10 28.02 10 27 C10.99 26.67 11.98 26.34 13 26 C13.05390357 23.06225537 13.0936255 20.12549768 13.125 17.1875 C13.14175781 16.35412109 13.15851563 15.52074219 13.17578125 14.66210938 C13.18222656 13.85966797 13.18867188 13.05722656 13.1953125 12.23046875 C13.20578613 11.49207764 13.21625977 10.75368652 13.22705078 9.99291992 C13.11741479 7.68109324 13.11741479 7.68109324 11 5 C7.29581502 4.67789696 4.63581666 5.09104583 1 6 C1 12.93 1 19.86 1 27 C2.32 27 3.64 27 5 27 C5 27.99 5 28.98 5 30 C0.05 30 -4.9 30 -10 30 C-10 29.01 -10 28.02 -10 27 C-9.01 26.67 -8.02 26.34 -7 26 C-7 19.07 -7 12.14 -7 5 C-7.99 4.67 -8.98 4.34 -10 4 C-10 3.01 -10 2.02 -10 1 C-6.59437148 0.22157062 -3.49234244 -0.09978121 0 0 Z " fill="#090B0C" transform="translate(257,204)"/>
<path d="M0 0 C0.2475 0.639375 0.495 1.27875 0.75 1.9375 C1.81562433 4.18741541 1.81562433 4.18741541 4.125 4.75 C4.74375 4.8325 5.3625 4.915 6 5 C4.68 5 3.36 5 2 5 C2 5.99 2 6.98 2 8 C3.32 8.33 4.64 8.66 6 9 C6 15.93 6 22.86 6 30 C4.68 30.33 3.36 30.66 2 31 C1.67 32.32 1.34 33.64 1 35 C-1.96361998 34.56417353 -4.05118938 33.97142918 -6.6875 32.5 C-10.50035859 30.77342252 -13.59052079 30.55887481 -17.73046875 30.40625 C-20.41639217 29.92546509 -21.3019928 29.079644 -23 27 C-20.17342791 24.17342791 -17.37387609 24.30021545 -13.5078125 23.7578125 C-10.29226685 22.78613671 -8.98057432 21.71073997 -7 19 C-6.51804725 15.95559865 -6.51804725 15.95559865 -6.75 12.75 C-6.80414063 11.13351563 -6.80414063 11.13351563 -6.859375 9.484375 C-6.90578125 8.66453125 -6.9521875 7.8446875 -7 7 C-6.34 7 -5.68 7 -5 7 C-4.67 7.66 -4.34 8.32 -4 9 C-2.68 8.67 -1.36 8.34 0 8 C-0.185625 6.865625 -0.37125 5.73125 -0.5625 4.5625 C-0.706875 3.386875 -0.85125 2.21125 -1 1 C-0.67 0.67 -0.34 0.34 0 0 Z " fill="#ECEFF3" transform="translate(104,200)"/>
<path d="M0 0 C3.5625 1.1875 3.5625 1.1875 6 3 C7 5.5625 7 5.5625 7 8 C6.34 8.66 5.68 9.32 5 10 C2.375 9.625 2.375 9.625 0 9 C-0.33 7.35 -0.66 5.7 -1 4 C-3.31 4 -5.62 4 -8 4 C-8.33 5.32 -8.66 6.64 -9 8 C-8.49210937 8.31453125 -7.98421875 8.6290625 -7.4609375 8.953125 C4.20792079 16.20792079 4.20792079 16.20792079 7 19 C7.4375 22.375 7.4375 22.375 7 26 C4.33481007 28.75844704 2.64914834 29.89073741 -1.15625 30.53125 C-2.2596875 30.5209375 -3.363125 30.510625 -4.5 30.5 C-5.6034375 30.5103125 -6.706875 30.520625 -7.84375 30.53125 C-11.62792929 29.89430893 -13.31958492 28.70514215 -16 26 C-16.375 23.3125 -16.375 23.3125 -16 21 C-15 20 -15 20 -12.4375 19.9375 C-11.2309375 19.9684375 -11.2309375 19.9684375 -10 20 C-9.34 21.98 -8.68 23.96 -8 26 C-5.36 26 -2.72 26 0 26 C0 24.68 0 23.36 0 22 C-2.12014273 20.4442333 -4.08691533 19.19015395 -6.375 17.9375 C-12.7640785 14.35388225 -12.7640785 14.35388225 -15 11 C-15.51940701 6.91894494 -15.67222913 4.87389788 -13.125 1.5625 C-8.68146319 -0.65926841 -4.87697532 -0.63883702 0 0 Z " fill="#121316" transform="translate(342,204)"/>
<path d="M0 0 C2.949939 0.94398048 3.77588982 1.65566765 6 4 C6.4375 7.6875 6.4375 7.6875 6 11 C5 12 5 12 2.5 12.125 C0 12 0 12 -1 11 C-0.71269945 8.66055264 -0.38063221 6.3260857 0 4 C-1.258125 3.9175 -2.51625 3.835 -3.8125 3.75 C-4.52019531 3.70359375 -5.22789062 3.6571875 -5.95703125 3.609375 C-8.13362025 3.83900798 -8.13362025 3.83900798 -9.7421875 5.609375 C-11.37923739 8.72078659 -11.36471772 10.9973957 -11.3125 14.5 C-11.30863281 15.6240625 -11.30476563 16.748125 -11.30078125 17.90625 C-11.01259977 20.87040237 -10.7363376 22.59976862 -9 25 C-5.58333333 26.08333333 -5.58333333 26.08333333 -2 26 C0.14860073 24.49597949 0.83552492 23.32895015 2 21 C3.32 21 4.64 21 6 21 C5.73309994 24.20280069 5.16670984 25.7943912 3.125 28.3125 C-1.53670765 30.82982213 -5.81319657 30.76052836 -11 30 C-15.14681074 27.96297016 -17.34741263 26.28338789 -19 22 C-20.31608874 10.15520134 -20.31608874 10.15520134 -17.25 5.375 C-11.83256563 -0.34340294 -7.75369743 -0.9845965 0 0 Z " fill="#131415" transform="translate(406,204)"/>
<path d="M0 0 C1.65 0 3.3 0 5 0 C5 2.64 5 5.28 5 8 C7.97 8 10.94 8 14 8 C14 9.32 14 10.64 14 12 C11.03 12 8.06 12 5 12 C5.33 18.93 5.66 25.86 6 33 C7.65 33.33 9.3 33.66 11 34 C11.66 32.68 12.32 31.36 13 30 C13.99 30 14.98 30 16 30 C15.49944612 33.70409874 14.98006238 35.67622102 12 38 C9.84375 38.3984375 9.84375 38.3984375 7.5 38.375 C6.33984375 38.38660156 6.33984375 38.38660156 5.15625 38.3984375 C2.50994057 37.90944554 1.6597046 37.07463075 0 35 C-1.2263757 32.54724859 -1.11415314 30.9494219 -1.09765625 28.2109375 C-1.09282227 26.79941406 -1.09282227 26.79941406 -1.08789062 25.359375 C-1.07951172 24.37453125 -1.07113281 23.3896875 -1.0625 22.375 C-1.05798828 21.38242188 -1.05347656 20.38984375 -1.04882812 19.3671875 C-1.03702145 16.9113984 -1.020554 14.45572896 -1 12 C-2.32 12 -3.64 12 -5 12 C-5 10.68 -5 9.36 -5 8 C-3.68 8 -2.36 8 -1 8 C-0.67 5.36 -0.34 2.72 0 0 Z " fill="#0D0E10" transform="translate(288,196)"/>
<path d="M0 0 C2.43283614 1.44465321 3.34844402 2.64063432 5 5 C4.01 5.495 4.01 5.495 3 6 C3 6.66 3 7.32 3 8 C0.53229066 7.57453287 -0.71199641 7.31304738 -2.4375 5.4375 C-3.96012323 3.76722884 -3.96012323 3.76722884 -6.5 3.625 C-8.97729432 3.83195598 -8.97729432 3.83195598 -10.75 5.0625 C-12.57905748 7.89753909 -12.68754809 10.68800975 -13 14 C-11.35 14 -9.7 14 -8 14 C-8 14.33 -8 14.66 -8 15 C-9.98 15 -11.96 15 -14 15 C-13.57576756 16.46224799 -13.13509755 17.91973412 -12.6875 19.375 C-12.44386719 20.18710938 -12.20023438 20.99921875 -11.94921875 21.8359375 C-11.08631815 24.33184629 -11.08631815 24.33184629 -8 26 C-5.1842234 26.06573798 -2.79681576 25.54131918 0 25 C0.33 24.34 0.66 23.68 1 23 C2.65 23 4.3 23 6 23 C4.59283258 26.40065459 3.1480057 28.08755968 0 30 C-5.19265575 30.80276433 -11.03049779 31.12725015 -15.625 28.25 C-18.78384622 25.25740884 -19.85272694 23.32545751 -20.3359375 18.9765625 C-20.4671869 7.71536395 -20.4671869 7.71536395 -16 3 C-11.33252034 -1.26564366 -6.01187997 -0.91859557 0 0 Z " fill="#16181B" transform="translate(152,204)"/>
<path d="M0 0 C6.20361688 0.22558607 6.20361688 0.22558607 8.69921875 2.65234375 C10.39815458 5.7185913 10.39922041 7.94572493 10.375 11.4375 C10.38273437 12.54996094 10.39046875 13.66242188 10.3984375 14.80859375 C9.92705845 18.58424751 8.7126225 21.2873775 6 24 C2.33879072 24.40680103 0.6381256 24.5001525 -2.3125 22.1875 C-5.80666717 17.65802404 -5.50791045 12.48193 -5 7 C-3.61451845 3.97713116 -2.33128575 2.33128575 0 0 Z " fill="#ECEFF2" transform="translate(365,207)"/>
<path d="M0 0 C0.33 0.99 0.66 1.98 1 3 C1.804375 2.2575 1.804375 2.2575 2.625 1.5 C5.63721374 -0.40245078 7.49662019 -0.38080215 11 0 C11.66 0.66 12.32 1.32 13 2 C12.625 4.625 12.625 4.625 12 7 C9.6875 7.6875 9.6875 7.6875 7 8 C5.1875 6.5625 5.1875 6.5625 4 5 C3.01 5.66 2.02 6.32 1 7 C0.58519893 9.02887311 0.58519893 9.02887311 0.70703125 11.3515625 C0.7215332 12.62773437 0.7215332 12.62773437 0.73632812 13.9296875 C0.7740332 15.26386719 0.7740332 15.26386719 0.8125 16.625 C0.82603516 17.5221875 0.83957031 18.419375 0.85351562 19.34375 C0.88893075 21.56309789 0.93831539 23.78125188 1 26 C2.98 26.33 4.96 26.66 7 27 C7 27.99 7 28.98 7 30 C1.39 30 -4.22 30 -10 30 C-10 29.01 -10 28.02 -10 27 C-9.01 26.67 -8.02 26.34 -7 26 C-7 19.07 -7 12.14 -7 5 C-7.99 4.67 -8.98 4.34 -10 4 C-10 3.01 -10 2.02 -10 1 C-6.61981469 -0.04005702 -3.5219721 -0.08004482 0 0 Z " fill="#070809" transform="translate(116,204)"/>
<path d="M0 0 C2.12294898 1.58264119 2.90954279 2.44629815 3.34057617 5.0847168 C3.32486572 5.86500244 3.30915527 6.64528809 3.29296875 7.44921875 C3.28330078 8.29677734 3.27363281 9.14433594 3.26367188 10.01757812 C3.23853516 10.89865234 3.21339844 11.77972656 3.1875 12.6875 C3.17396484 13.58017578 3.16042969 14.47285156 3.14648438 15.39257812 C3.11114079 17.59566166 3.06180493 19.79752582 3 22 C1.68 22.33 0.36 22.66 -1 23 C-1 23.99 -1 24.98 -1 26 C-2.65 26 -4.3 26 -6 26 C-6 25.01 -6 24.02 -6 23 C-7.32 22.67 -8.64 22.34 -10 22 C-10 15.4 -10 8.8 -10 2 C-5.99186716 -0.00406642 -4.33794733 -0.46148376 0 0 Z " fill="#EEF1F5" transform="translate(57,208)"/>
<path d="M0 0 C1.65 0.33 3.3 0.66 5 1 C5.33 14.53 5.66 28.06 6 42 C6.99 42.33 7.98 42.66 9 43 C9 43.99 9 44.98 9 46 C6.9375 46.875 6.9375 46.875 4 47 C1.40994275 45.26080867 -0.79124879 43.19602066 -3 41 C-2.835 40.30261719 -2.67 39.60523438 -2.5 38.88671875 C-1.96227204 35.78217997 -1.9397967 32.96188497 -2 29.8125 C-2.07336424 21.18303178 -1.54662064 12.60927511 -1 4 C-1.66 3.67 -2.32 3.34 -3 3 C-1.8125 1.4375 -1.8125 1.4375 0 0 Z " fill="#09090C" transform="translate(186,188)"/>
<path d="M0 0 C2.08890708 1.80583089 2.91400013 3.26557709 3.23608398 6.01611328 C3.29558184 8.43433083 3.26116639 10.83223124 3.1875 13.25 C3.17396484 14.09046875 3.16042969 14.9309375 3.14648438 15.796875 C3.11123464 17.86485938 3.0574302 19.93251271 3 22 C1.68 22.33 0.36 22.66 -1 23 C-1 23.99 -1 24.98 -1 26 C-2.65 26 -4.3 26 -6 26 C-6 25.01 -6 24.02 -6 23 C-7.32 23 -8.64 23 -10 23 C-10 16.07 -10 9.14 -10 2 C-6.00025484 0.00012742 -4.33277245 -0.55311989 0 0 Z " fill="#EBEEF1" transform="translate(268,208)"/>
<path d="M0 0 C3.34431923 3.43232764 4.28873228 6.3309835 4.5 11 C4.3014819 16.26470008 2.73496996 19.26503004 -1 23 C-6.35674677 23.46580407 -6.35674677 23.46580407 -8.8125 21.6875 C-11.18221915 18.32000437 -11.19031472 15.11396632 -11.25 11.125 C-11.28867188 9.58199219 -11.28867188 9.58199219 -11.328125 8.0078125 C-10.95503198 4.58779313 -10.03027507 2.74974147 -8 0 C-4.9637583 -1.51812085 -3.20988224 -0.96296467 0 0 Z " fill="#ECEEF2" transform="translate(181,208)"/>
<path d="M0 0 C0.99 0.99 1.98 1.98 3 3 C2.505 3.515625 2.01 4.03125 1.5 4.5625 C-0.54050648 7.87832303 -0.34224015 10.16691031 0 14 C1.01736771 16.76142665 1.36170741 17.68085371 4 19 C3.73958333 21.01822917 3.47916667 23.03645833 3.21875 25.0546875 C2.9627515 27.00498344 2.9627515 27.00498344 3 29 C1 30.625 1 30.625 -1 32 C-2.32 31.34 -3.64 30.68 -5 30 C-5 29.01 -5 28.02 -5 27 C-6.32 26.67 -7.64 26.34 -9 26 C-9 20.39 -9 14.78 -9 9 C-8.01 9.33 -7.02 9.66 -6 10 C-5.34 8.02 -4.68 6.04 -4 4 C-3.34 4 -2.68 4 -2 4 C-2 3.01 -2 2.02 -2 1 C-1.34 0.67 -0.68 0.34 0 0 Z " fill="#E9EBEF" transform="translate(75,204)"/>
<path d="M0 0 C3.375 0.9375 3.375 0.9375 5.375 3.9375 C6.365 4.2675 7.355 4.5975 8.375 4.9375 C8.375 4.2775 8.375 3.6175 8.375 2.9375 C11.375 3.9375 11.375 3.9375 12.375 5.9375 C12.375 8.5775 12.375 11.2175 12.375 13.9375 C5.775 13.9375 -0.825 13.9375 -7.625 13.9375 C-7.955 14.9275 -8.285 15.9175 -8.625 16.9375 C-8.667721 15.27138095 -8.66563832 13.60367115 -8.625 11.9375 C-8.295 11.6075 -7.965 11.2775 -7.625 10.9375 C-7.686875 9.844375 -7.74875 8.75125 -7.8125 7.625 C-7.625 3.9375 -7.625 3.9375 -6.0625 1.4375 C-3.625 -0.0625 -3.625 -0.0625 0 0 Z " fill="#2A2B2F" transform="translate(146.625,207.0625)"/>
<path d="M0 0 C0.33 8.58 0.66 17.16 1 26 C1.99 26.33 2.98 26.66 4 27 C4 27.99 4 28.98 4 30 C-0.95 30 -5.9 30 -11 30 C-11 29.01 -11 28.02 -11 27 C-9.68 26.34 -8.36 25.68 -7 25 C-7 18.4 -7 11.8 -7 5 C-8.32 4.67 -9.64 4.34 -11 4 C-11 3.01 -11 2.02 -11 1 C-7.05979642 -0.26086514 -4.52419701 0 0 0 Z " fill="#090909" transform="translate(29,204)"/>
<path d="M0 0 C1.74506615 1.74506615 1.23282784 4.19039143 1.31640625 6.56640625 C1.37924805 8.2534668 1.37924805 8.2534668 1.44335938 9.97460938 C1.48267578 11.15861328 1.52199219 12.34261719 1.5625 13.5625 C1.60568359 14.75037109 1.64886719 15.93824219 1.69335938 17.16210938 C1.79983546 20.10794784 1.90184841 23.0538743 2 26 C2.99 26.33 3.98 26.66 5 27 C5 27.99 5 28.98 5 30 C0.05 30 -4.9 30 -10 30 C-10 29.01 -10 28.02 -10 27 C-8.35 26.67 -6.7 26.34 -5 26 C-5.33 19.07 -5.66 12.14 -6 5 C-7.32 4.67 -8.64 4.34 -10 4 C-10 3.01 -10 2.02 -10 1 C-6.60169639 0.22324489 -3.48880949 -0.19382275 0 0 Z " fill="#070808" transform="translate(207,204)"/>
<path d="M0 0 C0 13.2 0 26.4 0 40 C-2.475 40.495 -2.475 40.495 -5 41 C-5 29.12 -5 17.24 -5 5 C-6.65 5 -8.3 5 -10 5 C-10 3.68 -10 2.36 -10 1 C-6.46315341 0.19157792 -3.72159473 0 0 0 Z " fill="#090B0B" transform="translate(477,188)"/>
<path d="M0 0 C0.33 8.58 0.66 17.16 1 26 C2.32 26.33 3.64 26.66 5 27 C5 27.99 5 28.98 5 30 C0.05 30 -4.9 30 -10 30 C-10 29.01 -10 28.02 -10 27 C-9.01 26.67 -8.02 26.34 -7 26 C-7 19.07 -7 12.14 -7 5 C-7.99 4.67 -8.98 4.34 -10 4 C-10 3.01 -10 2.02 -10 1 C-6.37900892 -0.1141511 -4.08844645 0 0 0 Z " fill="#0C0C0D" transform="translate(426,204)"/>
<path d="M0 0 C0.66 0.66 1.32 1.32 2 2 C1.625 4.125 1.625 4.125 1 6 C-0.32 6.33 -1.64 6.66 -3 7 C-3.33 6.01 -3.66 5.02 -4 4 C-4.66 4 -5.32 4 -6 4 C-5.67 4.66 -5.34 5.32 -5 6 C-4.86584528 8.6723621 -4.95681459 11.32250488 -5 14 C-6.66666667 14 -8.33333333 14 -10 14 C-10.28875 12.88625 -10.5775 11.7725 -10.875 10.625 C-11.69241329 6.99708908 -11.69241329 6.99708908 -14 5 C-17 4.58333333 -17 4.58333333 -20 5 C-22.12019791 7.86954129 -22.12019791 7.86954129 -22.9375 11.0625 C-24 14 -24 14 -27 16 C-27.66 15.67 -28.32 15.34 -29 15 C-29.42968661 10.70313391 -29.41369759 7.98785452 -26.6875 4.625 C-23.13459836 1.15472398 -20.77518753 0.86078813 -16 0.875 C-15.13375 0.87242187 -14.2675 0.86984375 -13.375 0.8671875 C-11 1 -11 1 -8 2 C-4.77626323 -0.14915785 -3.73296326 -0.38286803 0 0 Z " fill="#101215" transform="translate(103,203)"/>
<path d="M0 0 C3.707777 1.82569248 5.7214923 4.58223845 8 8 C8.30078125 10.9609375 8.30078125 10.9609375 8.3125 14.375 C8.32925781 15.49648437 8.34601563 16.61796875 8.36328125 17.7734375 C7.96941825 21.27161859 7.01813441 23.15650719 5 26 C4.34 25.01 3.68 24.02 3 23 C2.01 23 1.02 23 0 23 C0.04640625 21.96359375 0.0928125 20.9271875 0.140625 19.859375 C0.17815275 18.48961221 0.21455184 17.11981818 0.25 15.75 C0.28351563 15.06808594 0.31703125 14.38617188 0.3515625 13.68359375 C0.41921178 10.19965577 0.27175789 8.35986466 -1.85546875 5.54296875 C-3.91765276 3.82106483 -3.91765276 3.82106483 -6.5625 3.5625 C-9.39895905 4.07160803 -10.14590698 4.88103655 -12 7 C-12.66 7 -13.32 7 -14 7 C-14 6.01 -14 5.02 -14 4 C-15.98 4.99 -15.98 4.99 -18 6 C-12.78138386 -0.78420098 -8.40859147 -0.99893189 0 0 Z " fill="#16191A" transform="translate(374,204)"/>
<path d="M0 0 C3.875 1.75 3.875 1.75 5 4 C5.15123831 5.5195764 5.24881693 7.04472502 5.31640625 8.5703125 C5.37924805 9.91416016 5.37924805 9.91416016 5.44335938 11.28515625 C5.48267578 12.22230469 5.52199219 13.15945312 5.5625 14.125 C5.60568359 15.06988281 5.64886719 16.01476562 5.69335938 16.98828125 C5.79959072 19.32537092 5.90163176 21.6625683 6 24 C6.99 24.33 7.98 24.66 9 25 C9 25.99 9 26.98 9 28 C4.38 28 -0.24 28 -5 28 C-5 27.01 -5 26.02 -5 25 C-4.01 24.67 -3.02 24.34 -2 24 C-1.97104024 20.87501937 -1.95321517 17.7500731 -1.9375 14.625 C-1.92493164 13.29082031 -1.92493164 13.29082031 -1.91210938 11.9296875 C-1.90888672 11.07890625 -1.90566406 10.228125 -1.90234375 9.3515625 C-1.89448853 8.17327881 -1.89448853 8.17327881 -1.88647461 6.97119141 C-1.87426047 4.92227332 -1.87426047 4.92227332 -3 3 C-2.01 3 -1.02 3 0 3 C0 2.01 0 1.02 0 0 Z " fill="#0A0C0D" transform="translate(61,206)"/>
<path d="M0 0 C0.66 0 1.32 0 2 0 C2.33 0.66 2.66 1.32 3 2 C3.99 2.33 4.98 2.66 6 3 C5.505 3.37125 5.01 3.7425 4.5 4.125 C2.72740392 6.00431698 2.72740392 6.00431698 2.625 9.0625 C2.74875 10.031875 2.8725 11.00125 3 12 C6.04681061 14.03120707 6.60118324 14.24659875 10.01171875 14.1953125 C10.76904297 14.18886719 11.52636719 14.18242187 12.30664062 14.17578125 C13.09232422 14.15902344 13.87800781 14.14226562 14.6875 14.125 C15.88342773 14.11146484 15.88342773 14.11146484 17.10351562 14.09765625 C19.069139 14.07411585 21.03460775 14.03824547 23 14 C19.54203985 17.66905655 16.41196516 18.79457565 11.33984375 19.2265625 C2.17075938 19.49805625 2.17075938 19.49805625 -2 16 C-4 14 -4 14 -4.3125 10.0625 C-4.24802944 7.32994009 -4.20018442 6.29117734 -2.625 4 C-1 3 -1 3 1 3 C0.67 2.01 0.34 1.02 0 0 Z " fill="#121515" transform="translate(77,230)"/>
<path d="M0 0 C1.05445312 0.08894531 2.10890625 0.17789063 3.1953125 0.26953125 C4.24460937 0.34558594 5.29390625 0.42164063 6.375 0.5 C9.48477333 1.1145308 10.98609063 1.99025271 13.3203125 4.08203125 C13.0078125 6.45703125 13.0078125 6.45703125 12.3203125 9.08203125 C9.11406363 11.2195305 8.09573147 11.37778124 4.3828125 11.39453125 C3.52816406 11.41128906 2.67351562 11.42804688 1.79296875 11.4453125 C-1.18139743 11.00832031 -2.54291009 10.17480181 -4.6796875 8.08203125 C-5.0546875 5.01953125 -5.0546875 5.01953125 -4.6796875 2.08203125 C-2.6796875 0.08203125 -2.6796875 0.08203125 0 0 Z " fill="#F1F3F6" transform="translate(83.6796875,233.91796875)"/>
<path d="M0 0 C1.32 0.33 2.64 0.66 4 1 C4.33 8.26 4.66 15.52 5 23 C6.32 23 7.64 23 9 23 C9 23.99 9 24.98 9 26 C4.05 26 -0.9 26 -6 26 C-6 25.01 -6 24.02 -6 23 C-5.35289062 22.814375 -4.70578125 22.62875 -4.0390625 22.4375 C-3.36617187 21.963125 -2.69328125 21.48875 -2 21 C-1.36709679 17.72447721 -1.36709679 17.72447721 -1.375 14 C-1.19368421 7.19368421 -1.19368421 7.19368421 1 5 C0.67958603 2.39719432 0.67958603 2.39719432 0 0 Z " fill="#080A0C" transform="translate(253,208)"/>
<path d="M0 0 C3 0.4375 3 0.4375 4.875 1.4375 C6.6721469 4.63242782 6.5537868 7.9088841 6 11.4375 C4.5 13.9375 4.5 13.9375 3 15.4375 C-0.375 15.125 -0.375 15.125 -4 14.4375 C-6.47342266 10.72736601 -6.38503486 8.82689738 -6 4.4375 C-4.4369108 1.05080673 -3.7186535 0.54230363 0 0 Z " fill="#EFEFF4" transform="translate(86,206.5625)"/>
<path d="M0 0 C1.670625 0.061875 1.670625 0.061875 3.375 0.125 C3.58125 1.07375 3.7875 2.0225 4 3 C5.08333333 6.41666667 5.08333333 6.41666667 8.5 7.5 C9.44875 7.70625 10.3975 7.9125 11.375 8.125 C11.375 9.115 11.375 10.105 11.375 11.125 C10.715 11.125 10.055 11.125 9.375 11.125 C10.1175 11.805625 10.1175 11.805625 10.875 12.5 C12.375 14.125 12.375 14.125 12.375 16.125 C13.365 16.125 14.355 16.125 15.375 16.125 C15.375 13.485 15.375 10.845 15.375 8.125 C15.705 8.125 16.035 8.125 16.375 8.125 C16.70212342 14.25553511 16.76866878 18.75169111 13.375 24.125 C11.375 22.125 11.375 22.125 10.75 18.8125 C8.8593184 13.7420357 5.98875355 12.57311413 1.375 10.125 C-4.28168801 6.85453798 -4.28168801 6.85453798 -5.625 4 C-5.625 0.07252435 -3.45255391 0.11905358 0 0 Z " fill="#ECEDF0" transform="translate(337.625,206.875)"/>
<path d="M0 0 C0.33 0.66 0.66 1.32 1 2 C1.66 2 2.32 2 3 2 C3.33 1.34 3.66 0.68 4 0 C4.8971875 1.3921875 4.8971875 1.3921875 5.8125 2.8125 C8.04206198 6.29027949 8.04206198 6.29027949 11 9 C14.44406404 9.43966775 16.25152131 9.5283379 19.125 7.5 C19.74375 7.005 20.3625 6.51 21 6 C22.32 6 23.64 6 25 6 C23.53284672 10.6459854 23.53284672 10.6459854 21.2890625 12.13671875 C16.69048184 13.87099576 11.81682132 13.64953131 7 13 C3.77089743 11.37030283 1.63925417 9.27850835 0 6 C-0.039992 4.00039988 -0.04346799 1.99952758 0 0 Z " fill="#111415" transform="translate(217,221)"/>
<path d="M0 0 C0.33 0.99 0.66 1.98 1 3 C1.804375 2.2575 1.804375 2.2575 2.625 1.5 C5.63721374 -0.40245078 7.49662019 -0.38080215 11 0 C11.66 0.66 12.32 1.32 13 2 C12.625 4.625 12.625 4.625 12 7 C9.6875 7.6875 9.6875 7.6875 7 8 C5.1875 6.5625 5.1875 6.5625 4 5 C3.4225 5.350625 2.845 5.70125 2.25 6.0625 C-0.35801776 7.14917407 -1.39417629 6.93065133 -4 6 C-4.33 6.66 -4.66 7.32 -5 8 C-5.66 7.01 -6.32 6.02 -7 5 C-7.99 4.67 -8.98 4.34 -10 4 C-10 3.01 -10 2.02 -10 1 C-6.61981469 -0.04005702 -3.5219721 -0.08004482 0 0 Z " fill="#0D1012" transform="translate(116,204)"/>
<path d="M0 0 C0.928125 0.165 1.85625 0.33 2.8125 0.5 C5.95621353 1.07748388 5.95621353 1.07748388 9 1 C9.33 1.99 9.66 2.98 10 4 C10.99 4 11.98 4 13 4 C13.33 3.01 13.66 2.02 14 1 C14.99 1.33 15.98 1.66 17 2 C16.21625 2.928125 15.4325 3.85625 14.625 4.8125 C11.25979046 9.44562135 10.67575278 14.42251806 10 20 C9.01 20 8.02 20 7 20 C7 19.34 7 18.68 7 18 C6.01 17.67 5.02 17.34 4 17 C4 16.34 4 15.68 4 15 C4.66 15 5.32 15 6 15 C6 14.01 6 13.02 6 12 C5.34 12 4.68 12 4 12 C4.33 9.69 4.66 7.38 5 5 C3.02 4.01 1.04 3.02 -1 2 C-0.67 1.34 -0.34 0.68 0 0 Z " fill="#EBEDEE" transform="translate(343,203)"/>
<path d="M0 0 C0 0.99 0 1.98 0 3 C0.94875 2.505 1.8975 2.01 2.875 1.5 C6 0 6 0 8 0 C8 1.32 8 2.64 8 4 C5.69 4.66 3.38 5.32 1 6 C1 12.27 1 18.54 1 25 C0.67 25 0.34 25 0 25 C0 18.4 0 11.8 0 5 C-0.99 5.33 -1.98 5.66 -3 6 C-2.67 7.32 -2.34 8.64 -2 10 C-2.99 10.495 -2.99 10.495 -4 11 C-4.47001033 14.27555608 -4.47001033 14.27555608 -4.625 18.0625 C-4.69976562 19.35285156 -4.77453125 20.64320313 -4.8515625 21.97265625 C-4.90054688 22.97167969 -4.94953125 23.97070312 -5 25 C-5.33 25 -5.66 25 -6 25 C-6.33 18.4 -6.66 11.8 -7 5 C-7.99 4.67 -8.98 4.34 -10 4 C-10 3.01 -10 2.02 -10 1 C-6.59437148 0.22157062 -3.49234244 -0.09978121 0 0 Z " fill="#191C1E" transform="translate(257,204)"/>
<path d="M0 0 C3.375 0.9375 3.375 0.9375 5.375 3.9375 C5.375 5.9175 5.375 7.8975 5.375 9.9375 C1.085 9.9375 -3.205 9.9375 -7.625 9.9375 C-7.625 3.9375 -7.625 3.9375 -6.0625 1.5 C-3.625 -0.0625 -3.625 -0.0625 0 0 Z " fill="#F4F6FA" transform="translate(146.625,207.0625)"/>
<path d="M0 0 C0.33 0 0.66 0 1 0 C1.3125 3.25 1.3125 3.25 1 7 C-1.65791815 9.77091652 -3.34844219 10.89033185 -7.15625 11.53125 C-8.2596875 11.5209375 -9.363125 11.510625 -10.5 11.5 C-11.6034375 11.5103125 -12.706875 11.520625 -13.84375 11.53125 C-17.62792929 10.89430893 -19.31958492 9.70514215 -22 7 C-22.375 4.3125 -22.375 4.3125 -22 2 C-21 1 -21 1 -18.4375 0.9375 C-17.2309375 0.9684375 -17.2309375 0.9684375 -16 1 C-15.34 2.98 -14.68 4.96 -14 7 C-12.1128125 7.0309375 -12.1128125 7.0309375 -10.1875 7.0625 C-9.47980469 7.07410156 -8.77210938 7.08570313 -8.04296875 7.09765625 C-5.79694539 7.08263217 -5.79694539 7.08263217 -3 6 C-2.01 6 -1.02 6 0 6 C0 4.02 0 2.04 0 0 Z " fill="#0F1313" transform="translate(348,223)"/>
<path d="M0 0 C2.4375 0.4375 2.4375 0.4375 4.25 1.5 C6.04592137 4.43018751 5.62727574 7.0847953 5.4375 10.4375 C1.1475 10.4375 -3.1425 10.4375 -7.5625 10.4375 C-5.99346234 1.02327406 -5.99346234 1.02327406 0 0 Z " fill="#F2F6F9" transform="translate(230.5625,206.5625)"/>
<path d="M0 0 C1.98 0.99 1.98 0.99 4 2 C4.66 1.34 5.32 0.68 6 0 C6.825 0.845625 7.65 1.69125 8.5 2.5625 C10.48224728 4.23723876 11.53597291 4.96111977 14.14453125 5.1796875 C16.59034829 4.95668228 16.59034829 4.95668228 20 4 C20.33 3.34 20.66 2.68 21 2 C22.65 2 24.3 2 26 2 C24.59283258 5.40065459 23.1480057 7.08755968 20 9 C14.44362119 9.8589945 9.48465053 9.69113042 4.375 7.3125 C1.93307411 4.93483532 0.90552001 3.25987205 0 0 Z " fill="#111416" transform="translate(132,225)"/>
<path d="M0 0 C0.48372093 7.25581395 0.48372093 7.25581395 -1.625 10.5 C-4.62363194 12.39387281 -6.51502007 12.38721999 -10 12 C-11 11 -11 11 -11.375 8.1875 C-11 5 -11 5 -8.6875 2.6875 C-5.58410305 0.7388554 -3.6722695 0 0 0 Z " fill="#F1F3F5" transform="translate(453,218)"/>
<path d="M0 0 C2.28783297 0.91513319 3.73449728 1.65484646 5.25 3.625 C6 6 6 6 6 14 C-0.6 14 -7.2 14 -14 14 C-13.67 13.34 -13.34 12.68 -13 12 C-8.71 12 -4.42 12 0 12 C-0.185625 10.205625 -0.37125 8.41125 -0.5625 6.5625 C-0.75388139 4.71247985 -0.91015699 2.85772162 -1 1 C-0.67 0.67 -0.34 0.34 0 0 Z " fill="#0C0D10" transform="translate(237,206)"/>
<path d="M0 0 C1.65 0 3.3 0 5 0 C5.61875 1.36125 5.61875 1.36125 6.25 2.75 C7.80244833 6.00598641 7.80244833 6.00598641 10.125 8.125 C12.12498812 10.12498812 12.60659344 11.24615407 13 14 C6.6 15.23076923 6.6 15.23076923 3.5625 14.0625 C3.046875 13.711875 2.53125 13.36125 2 13 C2.66 10.36 3.32 7.72 4 5 C3.34 6.65 2.68 8.3 2 10 C1.34 10 0.68 10 0 10 C0 9.01 0 8.02 0 7 C-0.99 6.67 -1.98 6.34 -3 6 C-1.35 6 0.3 6 2 6 C1.01 5.01 0.02 4.02 -1 3 C-0.67 2.01 -0.34 1.02 0 0 Z " fill="#EFF2F8" transform="translate(212,224)"/>
<path d="M0 0 C0.33 0 0.66 0 1 0 C1.33 8.58 1.66 17.16 2 26 C2.99 26.33 3.98 26.66 5 27 C5 27.99 5 28.98 5 30 C0.05 30 -4.9 30 -10 30 C-10 29.01 -10 28.02 -10 27 C-9.360625 26.731875 -8.72125 26.46375 -8.0625 26.1875 C-5.66868314 25.11332248 -5.66868314 25.11332248 -5 22 C-3.68 22 -2.36 22 -1 22 C-0.67 14.74 -0.34 7.48 0 0 Z " fill="#131417" transform="translate(28,204)"/>
<path d="M0 0 C0.66 0 1.32 0 2 0 C2.33 0.99 2.66 1.98 3 3 C2.30197266 4.12341797 2.30197266 4.12341797 1.58984375 5.26953125 C-0.82524843 9.41731855 -0.41612529 13.42924222 -0.49609375 18.13671875 C-0.66238281 19.08160156 -0.82867187 20.02648437 -1 21 C-3.03515625 22.39453125 -3.03515625 22.39453125 -5 23 C-5 22.34 -5 21.68 -5 21 C-5.66 20.67 -6.32 20.34 -7 20 C-6.57913998 6.99542543 -6.57913998 6.99542543 -2 2 C-1.34 2 -0.68 2 0 2 C0 1.34 0 0.68 0 0 Z " fill="#F1F4F8" transform="translate(388,205)"/>
<path d="M0 0 C0.53625 0.33 1.0725 0.66 1.625 1 C4.5391061 2.22699204 6.86867708 2.14233286 10 2 C9.59007812 2.47050781 9.18015625 2.94101563 8.7578125 3.42578125 C8.21898437 4.04839844 7.68015625 4.67101562 7.125 5.3125 C6.59132812 5.92738281 6.05765625 6.54226562 5.5078125 7.17578125 C3.8359553 9.13498212 3.8359553 9.13498212 2 12 C-0.3125 11.875 -0.3125 11.875 -3 11 C-4.625 8.125 -4.625 8.125 -6 5 C-7.56102491 3.18445841 -7.56102491 3.18445841 -9 2 C-7 1 -7 1 -5.0625 1.5625 C-4.381875 1.706875 -3.70125 1.85125 -3 2 C-2.01 1.34 -1.02 0.68 0 0 Z " fill="#E9ECEF" transform="translate(161,202)"/>
<path d="M0 0 C0.33 0 0.66 0 1 0 C1.33 6.6 1.66 13.2 2 20 C3.32 20 4.64 20 6 20 C6 14.06 6 8.12 6 2 C6.33 2 6.66 2 7 2 C7.33 8.27 7.66 14.54 8 21 C8.99 21.33 9.98 21.66 11 22 C11 22.99 11 23.98 11 25 C6.05 25 1.1 25 -4 25 C-4 24.01 -4 23.02 -4 22 C-3.01 21.67 -2.02 21.34 -1 21 C-0.67 14.07 -0.34 7.14 0 0 Z " fill="#2A2D2F" transform="translate(40,209)"/>
<path d="M0 0 C1.32 0.33 2.64 0.66 4 1 C3.525625 1.598125 3.05125 2.19625 2.5625 2.8125 C0.31369498 7.40006225 0.256466 11.95027297 0 17 C-0.33 17 -0.66 17 -1 17 C-1.33 14.36 -1.66 11.72 -2 9 C-2.66 9 -3.32 9 -4 9 C-4 8.34 -4 7.68 -4 7 C-5.98 7.33 -7.96 7.66 -10 8 C-10 7.34 -10 6.68 -10 6 C-11.65 6 -13.3 6 -15 6 C-15 11.61 -15 17.22 -15 23 C-15.33 23 -15.66 23 -16 23 C-16.14515677 19.89632503 -16.23400853 16.79351973 -16.3125 13.6875 C-16.35439453 12.80642578 -16.39628906 11.92535156 -16.43945312 11.01757812 C-16.48579382 8.58005772 -16.48611344 6.39029743 -16 4 C-13.48046875 1.89453125 -13.48046875 1.89453125 -11 1 C-10.34 1.99 -9.68 2.98 -9 4 C-5.39007621 3.34414811 -5.39007621 3.34414811 -2 2 C-1.67 2 -1.34 2 -1 2 C-0.67 1.34 -0.34 0.68 0 0 Z " fill="#D7D9DC" transform="translate(132,207)"/>
<path d="M0 0 C0.99 0.33 1.98 0.66 3 1 C3 2.98 3 4.96 3 7 C5.31 7.33 7.62 7.66 10 8 C10 8.33 10 8.66 10 9 C8.02 9 6.04 9 4 9 C4.33 11.31 4.66 13.62 5 16 C3.02 16.99 3.02 16.99 1 18 C-0.48046875 16.875 -0.48046875 16.875 -2 15 C-2.36328125 12.1875 -2.36328125 12.1875 -2.3125 9 C-2.30863281 7.948125 -2.30476562 6.89625 -2.30078125 5.8125 C-2 3 -2 3 0 0 Z " fill="#0A090B" transform="translate(134,210)"/>
<path d="M0 0 C2.4375 0.375 2.4375 0.375 5 1 C6.17426264 3.34852528 6.11508173 4.73774065 6.09765625 7.3515625 C6.09443359 8.20234375 6.09121094 9.053125 6.08789062 9.9296875 C6.07951172 10.81914062 6.07113281 11.70859375 6.0625 12.625 C6.05798828 13.5221875 6.05347656 14.419375 6.04882812 15.34375 C6.03702591 17.56256648 6.02056155 19.78125018 6 22 C5.54625 21.38125 5.0925 20.7625 4.625 20.125 C3.02891081 17.94080167 3.02891081 17.94080167 1 16 C0.8046875 12.9609375 0.8046875 12.9609375 0.875 9.375 C0.89304688 8.18648437 0.91109375 6.99796875 0.9296875 5.7734375 C0.95289063 4.85820312 0.97609375 3.94296875 1 3 C0.34 2.67 -0.32 2.34 -1 2 C-0.67 1.34 -0.34 0.68 0 0 Z " fill="#07080A" transform="translate(184,189)"/>
<path d="M0 0 C0.33 0 0.66 0 1 0 C1 1.98 1 3.96 1 6 C-5.435 6.495 -5.435 6.495 -12 7 C-5.73 7.33 0.54 7.66 7 8 C7 8.33 7 8.66 7 9 C0.4 9 -6.2 9 -13 9 C-12.67 10.65 -12.34 12.3 -12 14 C-14 13 -14 13 -15 10 C-16.65 10.66 -18.3 11.32 -20 12 C-20 8.7 -20 5.4 -20 2 C-18.68 2.99 -17.36 3.98 -16 5 C-13.16599714 5.21340383 -10.56983831 5.28464991 -7.75 5.1875 C-7.00492188 5.17396484 -6.25984375 5.16042969 -5.4921875 5.14648438 C-3.66114584 5.11127204 -1.83047831 5.05746851 0 5 C0 3.35 0 1.7 0 0 Z " fill="#393B3E" transform="translate(236,212)"/>
<path d="M0 0 C3.125 0.1875 3.125 0.1875 6.125 2.1875 C6.0625 4.5 6.0625 4.5 5.125 7.1875 C0.70451289 9.70111032 -2.81851834 10.55748646 -7.875 10.1875 C-7.875 9.5275 -7.875 8.8675 -7.875 8.1875 C-6.555 7.5275 -5.235 6.8675 -3.875 6.1875 C-3.895625 5.383125 -3.91625 4.57875 -3.9375 3.75 C-3.84878306 0.11260544 -3.6593147 0.23865096 0 0 Z " fill="#F1F3F6" transform="translate(446.875,206.8125)"/>
<path d="M0 0 C0.33 0 0.66 0 1 0 C1.33 8.25 1.66 16.5 2 25 C2.99 25.33 3.98 25.66 5 26 C5 26.99 5 27.98 5 29 C0.05 29 -4.9 29 -10 29 C-10 28.01 -10 27.02 -10 26 C-6.94152152 25.45627049 -4.11227195 25 -1 25 C-0.67 16.75 -0.34 8.5 0 0 Z " fill="#131618" transform="translate(207,205)"/>
<path d="M0 0 C0.91644287 0.00523682 1.83288574 0.01047363 2.77709961 0.01586914 C3.76645508 0.0190918 4.75581055 0.02231445 5.77514648 0.02563477 C6.81606445 0.03401367 7.85698242 0.04239258 8.92944336 0.05102539 C10.49662109 0.05779297 10.49662109 0.05779297 12.09545898 0.06469727 C14.68600996 0.07652627 17.27644895 0.0930085 19.86694336 0.11352539 C14.91958336 5.36290446 9.22560143 5.36540578 2.35522461 5.57446289 C-0.13305664 5.11352539 -0.13305664 5.11352539 -1.96508789 3.09008789 C-2.35051758 2.43782227 -2.73594727 1.78555664 -3.13305664 1.11352539 C-2.13305664 0.11352539 -2.13305664 0.11352539 0 0 Z " fill="#1B1E20" transform="translate(80.133056640625,243.886474609375)"/>
<path d="M0 0 C0.66 0.33 1.32 0.66 2 1 C2 1.66 2 2.32 2 3 C2.66 3.66 3.32 4.32 4 5 C3.360625 5.12375 2.72125 5.2475 2.0625 5.375 C1.381875 5.58125 0.70125 5.7875 0 6 C-0.33 6.66 -0.66 7.32 -1 8 C-1.66 7.67 -2.32 7.34 -3 7 C-3.33 7.99 -3.66 8.98 -4 10 C-4.66 10 -5.32 10 -6 10 C-7.34882408 10.63474075 -8.6846659 11.29848848 -10 12 C-10 11.34 -10 10.68 -10 10 C-13.63 10 -17.26 10 -21 10 C-21 9.67 -21 9.34 -21 9 C-20.32453125 8.95101562 -19.6490625 8.90203125 -18.953125 8.8515625 C-18.06109375 8.77679688 -17.1690625 8.70203125 -16.25 8.625 C-15.36828125 8.55539063 -14.4865625 8.48578125 -13.578125 8.4140625 C-9.9416218 7.83001805 -7.72606177 6.96808237 -5.5 4 C-3.83324165 1.77765553 -2.60214289 0.92334103 0 0 Z " fill="#DEE2E5" transform="translate(247,225)"/>
<path d="M0 0 C2.475 0.495 2.475 0.495 5 1 C5.33 14.53 5.66 28.06 6 42 C6.99 42.33 7.98 42.66 9 43 C9 43.99 9 44.98 9 46 C6.525 46.495 6.525 46.495 4 47 C3.08138216 44.24414648 2.87795678 42.6403931 2.88647461 39.80395508 C2.88655014 38.96331009 2.88662567 38.1226651 2.88670349 37.25654602 C2.89186478 36.35333115 2.89702606 35.45011627 2.90234375 34.51953125 C2.90446617 33.12754768 2.90446617 33.12754768 2.90663147 31.70744324 C2.91223063 28.74242942 2.92478296 25.77749101 2.9375 22.8125 C2.94251511 20.80273547 2.947078 18.79296975 2.95117188 16.78320312 C2.96219979 11.85543968 2.97946383 6.92773263 3 2 C2.01 2 1.02 2 0 2 C0 1.34 0 0.68 0 0 Z " fill="#303133" transform="translate(186,188)"/>
<path d="M0 0 C-1.33333333 1.33333333 -2.66666667 2.66666667 -4 4 C-3.01 4.33 -2.02 4.66 -1 5 C-1.375 6.9375 -1.375 6.9375 -2 9 C-2.99 9.495 -2.99 9.495 -4 10 C-4 10.66 -4 11.32 -4 12 C-4.66 12 -5.32 12 -6 12 C-6.33 12.66 -6.66 13.32 -7 14 C-9.47342266 10.28986601 -9.38503486 8.38939738 -9 4 C-6.9285531 -0.48813496 -4.68078576 -0.41606985 0 0 Z " fill="#E3E6E8" transform="translate(89,207)"/>
<path d="M0 0 C1.32 0 2.64 0 4 0 C5.35201312 4.05603936 5.18417967 7.81579445 5.1875 12.0625 C5.19974609 12.89072266 5.21199219 13.71894531 5.22460938 14.57226562 C5.22750977 15.76045898 5.22750977 15.76045898 5.23046875 16.97265625 C5.23457764 17.69718994 5.23868652 18.42172363 5.24291992 19.16821289 C5 21 5 21 3 23 C2.4225 22.360625 1.845 21.72125 1.25 21.0625 C-0.98062401 19.01776132 -2.07436391 18.41794801 -5 18 C-5 17.01 -5 16.02 -5 15 C0.75 14.875 0.75 14.875 3 16 C3.33 12.04 3.66 8.08 4 4 C2.68 4 1.36 4 0 4 C0 2.68 0 1.36 0 0 Z " fill="#17191E" transform="translate(180,189)"/>
<path d="M0 0 C0.33 0 0.66 0 1 0 C1.08150744 2.06183633 1.1394194 4.12461349 1.1875 6.1875 C1.22230469 7.33605469 1.25710938 8.48460937 1.29296875 9.66796875 C0.97622579 13.27039199 0.08533398 15.09366839 -2 18 C-2.66 17.01 -3.32 16.02 -4 15 C-4.99 15 -5.98 15 -7 15 C-6.67 11.04 -6.34 7.08 -6 3 C-5.67 3 -5.34 3 -5 3 C-4.67 4.98 -4.34 6.96 -4 9 C-3.34 9 -2.68 9 -2 9 C-1.34 6.03 -0.68 3.06 0 0 Z " fill="#202323" transform="translate(381,212)"/>
<path d="M0 0 C1.32 0.33 2.64 0.66 4 1 C4.5745952 4.73486879 5 8.21293268 5 12 C2.69 11.34 0.38 10.68 -2 10 C-2.25 3.375 -2.25 3.375 0 0 Z " fill="#070A0B" transform="translate(437,220)"/>
<path d="M0 0 C5.66153846 2.46153846 5.66153846 2.46153846 7.375 5.1875 C7.58125 5.785625 7.7875 6.38375 8 7 C6 9 6 9 4.0546875 9.1953125 C2.03645833 9.13020833 0.01822917 9.06510417 -2 9 C-2.33 7.35 -2.66 5.7 -3 4 C-2.01 3.34 -1.02 2.68 0 2 C0 1.34 0 0.68 0 0 Z " fill="#E9ECED" transform="translate(336,222)"/>
<path d="M0 0 C0.66 0.66 1.32 1.32 2 2 C1.625 4.625 1.625 4.625 1 7 C-1.375 7.625 -1.375 7.625 -4 8 C-4.66 7.34 -5.32 6.68 -6 6 C-6 4.68 -6 3.36 -6 2 C-8.97 1.505 -8.97 1.505 -12 1 C-12 0.67 -12 0.34 -12 0 C-7.68178709 -0.92533134 -4.30210575 -1.07552644 0 0 Z " fill="#16181B" transform="translate(347,206)"/>
<path d="M0 0 C1.32 0 2.64 0 4 0 C4 0.99 4 1.98 4 3 C5.32 3 6.64 3 8 3 C8 7.29 8 11.58 8 16 C4.7 15.34 1.4 14.68 -2 14 C-2 13.67 -2 13.34 -2 13 C-0.865625 12.71125 0.26875 12.4225 1.4375 12.125 C2.613125 11.75375 3.78875 11.3825 5 11 C5.33 10.34 5.66 9.68 6 9 C5.34 9 4.68 9 4 9 C3.67 7.35 3.34 5.7 3 4 C2.01 3.67 1.02 3.34 0 3 C0 2.01 0 1.02 0 0 Z " fill="#F0F3F6" transform="translate(176,190)"/>
<path d="M0 0 C1.32 0.33 2.64 0.66 4 1 C4 1.99 4 2.98 4 4 C5.65 4.33 7.3 4.66 9 5 C8.01 6.485 8.01 6.485 7 8 C6.01 8 5.02 8 4 8 C3.67 6.02 3.34 4.04 3 2 C2.01 1.67 1.02 1.34 0 1 C0 0.67 0 0.34 0 0 Z M10 0 C10.66 1.32 11.32 2.64 12 4 C16.29 4 20.58 4 25 4 C25 4.99 25 5.98 25 7 C22.03 7 19.06 7 16 7 C15.67 7.66 15.34 8.32 15 9 C13.68 8.67 12.36 8.34 11 8 C11 7.01 11 6.02 11 5 C10.34 5 9.68 5 9 5 C9.33 3.35 9.66 1.7 10 0 Z " fill="#D3D6DA" transform="translate(277,229)"/>
<path d="M0 0 C3 3 3 3 3.1875 6.6875 C3.125625 7.780625 3.06375 8.87375 3 10 C2.67 10 2.34 10 2 10 C2 8.02 2 6.04 2 4 C-1.15019724 5.10192085 -4.13722607 6.27291518 -7 8 C-8.66916219 11.07471774 -8.66916219 11.07471774 -9 14 C-9.33 14 -9.66 14 -10 14 C-10.144375 12.88625 -10.28875 11.7725 -10.4375 10.625 C-10.78372035 7.17857953 -10.78372035 7.17857953 -12 5 C-8.04 3.35 -4.08 1.7 0 0 Z " fill="#191B1D" transform="translate(451,214)"/>
<path d="M0 0 C0.78246094 -0.02578125 1.56492187 -0.0515625 2.37109375 -0.078125 C5.04181509 0.32176911 5.88227439 1.19699122 7.5625 3.25 C6.9025 3.25 6.2425 3.25 5.5625 3.25 C5.2325 3.91 4.9025 4.57 4.5625 5.25 C3.87542969 5.23839844 3.18835937 5.22679687 2.48046875 5.21484375 C1.57941406 5.20582031 0.67835937 5.19679687 -0.25 5.1875 C-1.14332031 5.17589844 -2.03664063 5.16429687 -2.95703125 5.15234375 C-5.57163791 5.13990033 -5.57163791 5.13990033 -8.4375 6.25 C-8.4375 5.59 -8.4375 4.93 -8.4375 4.25 C-9.0975 4.25 -9.7575 4.25 -10.4375 4.25 C-10.1075 3.26 -9.7775 2.27 -9.4375 1.25 C-8.4475 1.25 -7.4575 1.25 -6.4375 1.25 C-4.11063547 0.08656773 -2.59028587 0.05104012 0 0 Z " fill="#121316" transform="translate(56.4375,203.75)"/>
<path d="M0 0 C3 0.125 3 0.125 4 1.125 C4.1875 3.5625 4.1875 3.5625 4 6.125 C2 8.125 2 8.125 -0.5 8.375 C-3 8.125 -3 8.125 -5 6.125 C-4.27477017 0.17811542 -4.27477017 0.17811542 0 0 Z " fill="#0E1212" transform="translate(26,189.875)"/>
<path d="M0 0 C3 0.125 3 0.125 4 1.125 C4.1875 3.5625 4.1875 3.5625 4 6.125 C2 8.125 2 8.125 -0.5 8.375 C-3 8.125 -3 8.125 -5 6.125 C-4.27477017 0.17811542 -4.27477017 0.17811542 0 0 Z " fill="#121416" transform="translate(205,189.875)"/>
<path d="M0 0 C1.134375 0.020625 2.26875 0.04125 3.4375 0.0625 C3.7675 1.7125 4.0975 3.3625 4.4375 5.0625 C2.7875 6.3825 1.1375 7.7025 -0.5625 9.0625 C-2.2125 7.7425 -3.8625 6.4225 -5.5625 5.0625 C-4.43693182 0.07784091 -4.43693182 0.07784091 0 0 Z " fill="#E6E8EB" transform="translate(337.5625,206.9375)"/>
<path d="M0 0 C1.32 0.33 2.64 0.66 4 1 C3.50769231 8.50769231 3.50769231 8.50769231 0.9375 11 C-0.0215625 11.495 -0.0215625 11.495 -1 12 C-1.66 11.67 -2.32 11.34 -3 11 C-3.36923077 4.6 -3.36923077 4.6 -1.5 1.5625 C-1.005 1.046875 -0.51 0.53125 0 0 Z " fill="#080808" transform="translate(77,207)"/>
<path d="M0 0 C0.33 0 0.66 0 1 0 C1.33 1.98 1.66 3.96 2 6 C4.97 6.495 4.97 6.495 8 7 C8 7.99 8 8.98 8 10 C3.05 10 -1.9 10 -7 10 C-7 9.34 -7 8.68 -7 8 C-4 6 -4 6 0 6 C-0.2784375 4.7934375 -0.2784375 4.7934375 -0.5625 3.5625 C-0.706875 2.716875 -0.85125 1.87125 -1 1 C-0.67 0.67 -0.34 0.34 0 0 Z " fill="#0D0F13" transform="translate(115,224)"/>
<path d="M0 0 C0.66 0 1.32 0 2 0 C2.66 0.99 3.32 1.98 4 3 C6.33010909 3.67784992 8.66359824 4.34416793 11 5 C12.9375 6.5625 12.9375 6.5625 14 8 C14 8.33 14 8.66 14 9 C12.02 9 10.04 9 8 9 C8.66 8.67 9.32 8.34 10 8 C9.67 7.34 9.34 6.68 9 6 C5.37114676 5.84850702 5.37114676 5.84850702 2 7 C0.33333333 6.33333333 -1.33333333 5.66666667 -3 5 C-3.99 5.495 -3.99 5.495 -5 6 C-7.3400417 5.71758117 -9.67504723 5.38749213 -12 5 C-12 4.67 -12 4.34 -12 4 C-10.95199219 3.81824219 -10.95199219 3.81824219 -9.8828125 3.6328125 C-8.51769531 3.38144531 -8.51769531 3.38144531 -7.125 3.125 C-5.76761719 2.88136719 -5.76761719 2.88136719 -4.3828125 2.6328125 C-1.83494012 2.16955297 -1.83494012 2.16955297 0 0 Z " fill="#D1D4D7" transform="translate(453,230)"/>
<path d="M0 0 C3 0.125 3 0.125 4 1.125 C4.04080783 3.12458364 4.04254356 5.12545254 4 7.125 C1.125 7.75 1.125 7.75 -2 8.125 C-4 6.125 -4 6.125 -4.1875 3.5625 C-3.91067812 -0.03618446 -3.67800108 0.15325004 0 0 Z " fill="#0E1111" transform="translate(423,189.875)"/>
<path d="M0 0 C0.99 0.33 1.98 0.66 3 1 C2.67 4.96 2.34 8.92 2 13 C1.01 13 0.02 13 -1 13 C-1 12.34 -1 11.68 -1 11 C-1.99 10.67 -2.98 10.34 -4 10 C-4 9.34 -4 8.68 -4 8 C-3.34 8 -2.68 8 -2 8 C-2 7.01 -2 6.02 -2 5 C-2.66 4.67 -3.32 4.34 -4 4 C-2.68 3.67 -1.36 3.34 0 3 C0 2.01 0 1.02 0 0 Z " fill="#F5F6F9" transform="translate(351,210)"/>
<path d="M0 0 C2.82588048 0.50720932 3.759269 1.14097336 5.4375 3.4375 C5.4375 4.0975 5.4375 4.7575 5.4375 5.4375 C4.4475 5.4375 3.4575 5.4375 2.4375 5.4375 C2.4375 4.7775 2.4375 4.1175 2.4375 3.4375 C-0.4134288 4.1393576 -0.4134288 4.1393576 -1.5625 5.4375 C-2.2225 5.4375 -2.8825 5.4375 -3.5625 5.4375 C-3.8925 7.0875 -4.2225 8.7375 -4.5625 10.4375 C-5.5525 10.4375 -6.5425 10.4375 -7.5625 10.4375 C-7.24907358 6.98980934 -6.88715015 4.87809663 -4.8125 2.0625 C-2.5625 0.4375 -2.5625 0.4375 0 0 Z " fill="#EAEDF0" transform="translate(230.5625,206.5625)"/>
<path d="M0 0 C0.33 2.31 0.66 4.62 1 7 C-0.65 6.67 -2.3 6.34 -4 6 C-4.33 6.66 -4.66 7.32 -5 8 C-5.66 7.01 -6.32 6.02 -7 5 C-7.99 4.67 -8.98 4.34 -10 4 C-10 3.01 -10 2.02 -10 1 C-6.61981469 -0.04005702 -3.5219721 -0.08004482 0 0 Z " fill="#0E0F11" transform="translate(116,204)"/>
<path d="M0 0 C1.65 0.33 3.3 0.66 5 1 C5.33 2.65 5.66 4.3 6 6 C6.66 6 7.32 6 8 6 C8.33 6.99 8.66 7.98 9 9 C7.02 9 5.04 9 3 9 C2.34 7.68 1.68 6.36 1 5 C0.01 5.33 -0.98 5.66 -2 6 C-1.34 4.02 -0.68 2.04 0 0 Z " fill="#0B0C0F" transform="translate(454,225)"/>
<path d="M0 0 C3.375 0.3125 3.375 0.3125 7 1 C9.29013653 4.4352048 9.17842973 5.985331 9 10 C7.35 10 5.7 10 4 10 C4 8.68 4 7.36 4 6 C3.34 5.67 2.68 5.34 2 5 C2.33 3.68 2.66 2.36 3 1 C2.01 0.67 1.02 0.34 0 0 Z " fill="#E4E5E8" transform="translate(143,207)"/>
<path d="M0 0 C1.32 0.33 2.64 0.66 4 1 C4.44041451 6.37305699 4.44041451 6.37305699 4 9 C1.5 11 1.5 11 -1 12 C-1.33 8.7 -1.66 5.4 -2 2 C-1.34 2 -0.68 2 0 2 C0 1.34 0 0.68 0 0 Z " fill="#080909" transform="translate(377,210)"/>
<path d="M0 0 C0.33 0.66 0.66 1.32 1 2 C1.66 2 2.32 2 3 2 C2.67 4.64 2.34 7.28 2 10 C0.35 9.67 -1.3 9.34 -3 9 C-3.75 6.75 -3.75 6.75 -4 4 C-2.0625 1.6875 -2.0625 1.6875 0 0 Z " fill="#101012" transform="translate(221,208)"/>
<path d="M0 0 C6.625 -0.125 6.625 -0.125 10 1 C10.33 1.99 10.66 2.98 11 4 C6.03926578 5.32286246 1.08888488 5.08893197 -4 5 C-2.68 4.67 -1.36 4.34 0 4 C0 2.68 0 1.36 0 0 Z " fill="#080A0A" transform="translate(87,230)"/>
<path d="M0 0 C0.6875 1.8125 0.6875 1.8125 1 4 C0 5 -1 6 -2 7 C-2.7269226 10.10839021 -2.7269226 10.10839021 -3 13 C-3.66 13 -4.32 13 -5 13 C-5.185625 11.576875 -5.185625 11.576875 -5.375 10.125 C-5.71687177 6.91332809 -5.71687177 6.91332809 -8 5 C-2.25 0 -2.25 0 0 0 Z " fill="#18191C" transform="translate(142,204)"/>
<path d="M0 0 C-0.66 0.66 -1.32 1.32 -2 2 C-1.67 2.66 -1.34 3.32 -1 4 C-0.34 4 0.32 4 1 4 C1 4.66 1 5.32 1 6 C-2.3 6.33 -5.6 6.66 -9 7 C-8.67 5.68 -8.34 4.36 -8 3 C-7.34 2.67 -6.68 2.34 -6 2 C-6.99 1.01 -7.98 0.02 -9 -1 C-5.79937313 -2.60031344 -3.27728194 -1.03173691 0 0 Z " fill="#E7EAED" transform="translate(27,198)"/>
<path d="M0 0 C0 1.32 0 2.64 0 4 C-2.31 4.66 -4.62 5.32 -7 6 C-7 12.27 -7 18.54 -7 25 C-7.33 25 -7.66 25 -8 25 C-8 17.74 -8 10.48 -8 3 C-2 0 -2 0 0 0 Z " fill="#3B3E40" transform="translate(265,204)"/>
<path d="M0 0 C0.433125 0.45375 0.86625 0.9075 1.3125 1.375 C3.10798342 3.20024334 3.10798342 3.20024334 6 5 C4.02 5.99 4.02 5.99 2 7 C2 6.34 2 5.68 2 5 C0.35 5 -1.3 5 -3 5 C-3 10.61 -3 16.22 -3 22 C-3.33 22 -3.66 22 -4 22 C-4.11613204 18.89614789 -4.18722029 15.79285338 -4.25 12.6875 C-4.28351563 11.80642578 -4.31703125 10.92535156 -4.3515625 10.01757812 C-4.45112665 3.47123501 -4.45112665 3.47123501 -1.984375 0.89453125 C-1.32953125 0.59933594 -0.6746875 0.30414063 0 0 Z " fill="#CACBCE" transform="translate(120,208)"/>
<path d="M0 0 C3.5625 0.3125 3.5625 0.3125 5.5 1.8125 C5.850625 2.3075 6.20125 2.8025 6.5625 3.3125 C4.5625 5.3125 4.5625 5.3125 1.125 5.625 C-2.4375 5.3125 -2.4375 5.3125 -4.375 3.8125 C-4.9009375 3.07 -4.9009375 3.07 -5.4375 2.3125 C-3.4375 0.3125 -3.4375 0.3125 0 0 Z " fill="#DBDCDF" transform="translate(86.4375,224.6875)"/>
<path d="M0 0 C0.66 0.66 1.32 1.32 2 2 C1.625 4.125 1.625 4.125 1 6 C-0.32 6.33 -1.64 6.66 -3 7 C-3.33 6.01 -3.66 5.02 -4 4 C-6.00016466 2.79117904 -6.00016466 2.79117904 -8 2 C-4.77626323 -0.14915785 -3.73296326 -0.38286803 0 0 Z " fill="#17191C" transform="translate(103,203)"/>
<path d="M0 0 C0.33 0.66 0.66 1.32 1 2 C1.66 2 2.32 2 3 2 C3.33 1.34 3.66 0.68 4 0 C5.625 2.25 5.625 2.25 7 5 C6.1875 7.3125 6.1875 7.3125 5 9 C3.0625 8.625 3.0625 8.625 1 8 C-0.35439668 5.29120665 -0.06501451 2.99066732 0 0 Z " fill="#0B0D0F" transform="translate(217,221)"/>
<path d="M0 0 C0.33 0 0.66 0 1 0 C1 3.3 1 6.6 1 10 C-0.98 10.99 -0.98 10.99 -3 12 C-3 11.34 -3 10.68 -3 10 C-3.66 9.67 -4.32 9.34 -5 9 C-4.67 6.36 -4.34 3.72 -4 1 C-2.515 1.99 -2.515 1.99 -1 3 C-0.67 2.01 -0.34 1.02 0 0 Z " fill="#D6D9DC" transform="translate(386,216)"/>
<path d="M0 0 C0.61875 0.639375 1.2375 1.27875 1.875 1.9375 C3.82597612 4.03883584 3.82597612 4.03883584 6 5 C4.25 9.875 4.25 9.875 2 11 C2 10.34 2 9.68 2 9 C0.35 9.66 -1.3 10.32 -3 11 C-2.690625 10.29875 -2.38125 9.5975 -2.0625 8.875 C-0.96697322 5.91063343 -0.43577008 3.12301892 0 0 Z " fill="#171718" transform="translate(92,212)"/>
<path d="M0 0 C0.33 0 0.66 0 1 0 C1 6.6 1 13.2 1 20 C0.67 19.01 0.34 18.02 0 17 C-0.99 16.67 -1.98 16.34 -3 16 C-2.52013969 10.43109483 -1.70084819 5.32932432 0 0 Z " fill="#C3C2C6" transform="translate(22,209)"/>
<path d="M0 0 C6.4 -0.49230769 6.4 -0.49230769 9.4375 2 C10.2109375 2.99 10.2109375 2.99 11 4 C10.67 4.99 10.34 5.98 10 7 C9.34 6.34 8.68 5.68 8 5 C5.34462628 4.43479997 2.70855287 4.26211802 0 4 C0 2.68 0 1.36 0 0 Z " fill="#161719" transform="translate(265,204)"/>
<path d="M0 0 C-0.33 2.64 -0.66 5.28 -1 8 C-3.475 7.01 -3.475 7.01 -6 6 C-6 4.02 -6 2.04 -6 0 C-3.50907189 -1.24546405 -2.58919267 -0.7767578 0 0 Z " fill="#070808" transform="translate(360,217)"/>
<path d="M0 0 C6.48979592 0.48979592 6.48979592 0.48979592 8.9375 2.9375 C10 5 10 5 10 7 C9.01 7.33 8.02 7.66 7 8 C7 7.01 7 6.02 7 5 C5.35 5.66 3.7 6.32 2 7 C2 5.68 2 4.36 2 3 C1.34 2.01 0.68 1.02 0 0 Z " fill="#E1E3E8" transform="translate(365,207)"/>
<path d="M0 0 C1.53445094 3.06890187 0.54984289 5.70094266 0 9 C-0.66 9 -1.32 9 -2 9 C-2.64388672 8.04867187 -2.64388672 8.04867187 -3.30078125 7.078125 C-5.46744979 4.42831428 -6.85594928 4.26920271 -10.1875 3.75 C-11.08855469 3.60046875 -11.98960937 3.4509375 -12.91796875 3.296875 C-13.94857422 3.14992187 -13.94857422 3.14992187 -15 3 C-15 2.67 -15 2.34 -15 2 C-11.7 1.67 -8.4 1.34 -5 1 C-5 1.66 -5 2.32 -5 3 C-3.68 2.67 -2.36 2.34 -1 2 C-1.66 1.67 -2.32 1.34 -3 1 C-2.01 0.67 -1.02 0.34 0 0 Z " fill="#EBEEF0" transform="translate(461,201)"/>
<path d="M0 0 C1.485 0.99 1.485 0.99 3 2 C4.2375 2.1546875 4.2375 2.1546875 5.5 2.3125 C8 3 8 3 9.9375 5.3125 C11 8 11 8 10.1875 10.3125 C9.795625 10.869375 9.40375 11.42625 9 12 C8.67 10.35 8.34 8.7 8 7 C5.69 7 3.38 7 1 7 C0.34 5.02 -0.32 3.04 -1 1 C-0.67 0.67 -0.34 0.34 0 0 Z " fill="#D5D8DC" transform="translate(418,184)"/>
<path d="M0 0 C-0.33 2.31 -0.66 4.62 -1 7 C-2.65 6.67 -4.3 6.34 -6 6 C-6 5.01 -6 4.02 -6 3 C-6.66 2.67 -7.32 2.34 -8 2 C-4.77208445 -0.1519437 -3.71599191 -0.20086443 0 0 Z " fill="#F3F6F9" transform="translate(287,227)"/>
<path d="M0 0 C0.66 0.33 1.32 0.66 2 1 C-0.31 2.32 -2.62 3.64 -5 5 C-4.34 6.32 -3.68 7.64 -3 9 C-3.99 10.485 -3.99 10.485 -5 12 C-5.99 11.67 -6.98 11.34 -8 11 C-8.3125 8.25 -8.3125 8.25 -8 5 C-5.399035 2.399035 -3.48886679 1.1629556 0 0 Z " fill="#E4E7E9" transform="translate(450,218)"/>
<path d="M0 0 C1.65 0 3.3 0 5 0 C5.66 1.98 6.32 3.96 7 6 C6.01 5.67 5.02 5.34 4 5 C3.34 6.65 2.68 8.3 2 10 C1.34 10 0.68 10 0 10 C0 9.01 0 8.02 0 7 C-0.99 6.67 -1.98 6.34 -3 6 C-1.35 6 0.3 6 2 6 C1.01 5.01 0.02 4.02 -1 3 C-0.67 2.01 -0.34 1.02 0 0 Z " fill="#DBDFE2" transform="translate(212,224)"/>
<path d="M0 0 C2.4375 0.8125 2.4375 0.8125 5 2 C5.33 2.99 5.66 3.98 6 5 C5.01 5 4.02 5 3 5 C3 5.99 3 6.98 3 8 C1.35 8 -0.3 8 -2 8 C-2 7.01 -2 6.02 -2 5 C-3.32 4.67 -4.64 4.34 -6 4 C-3.69 3.34 -1.38 2.68 1 2 C0.67 1.34 0.34 0.68 0 0 Z " fill="#D8DBDF" transform="translate(264,226)"/>
<path d="M0 0 C3 1 3 1 4.4375 2.5625 C6.13676051 4.45137102 6.13676051 4.45137102 10 4 C10 5.32 10 6.64 10 8 C7.36 7.67 4.72 7.34 2 7 C2 6.01 2 5.02 2 4 C1.34 4 0.68 4 0 4 C0 2.68 0 1.36 0 0 Z " fill="#070909" transform="translate(77,226)"/>
<path d="M0 0 C0.66 0.33 1.32 0.66 2 1 C0.14285714 8.57142857 0.14285714 8.57142857 -3 11 C-3.33 10.67 -3.66 10.34 -4 10 C-3.63228438 4.20847902 -3.63228438 4.20847902 -3 2 C-2.01 1.34 -1.02 0.68 0 0 Z " fill="#0C0C0D" transform="translate(167,209)"/>
<path d="M0 0 C3.46941546 0.45822468 6.67395049 0.89131683 10 2 C8.625 4 8.625 4 7 6 C6.34 6 5.68 6 5 6 C4.67 8.31 4.34 10.62 4 13 C3.67 13 3.34 13 3 13 C2.80083984 11.84371094 2.80083984 11.84371094 2.59765625 10.6640625 C2.42105469 9.66117188 2.24445313 8.65828125 2.0625 7.625 C1.88847656 6.62726563 1.71445313 5.62953125 1.53515625 4.6015625 C1.12287938 2.03090344 1.12287938 2.03090344 0 0 Z " fill="#E0E1E5" transform="translate(240,207)"/>
<path d="M0 0 C0.99 0.66 1.98 1.32 3 2 C0.48169253 5.12270126 -0.7261549 5.94523098 -4.75 6.75 C-6.35875 6.87375 -6.35875 6.87375 -8 7 C-7.3125 5.125 -7.3125 5.125 -6 3 C-3.4375 1.8125 -3.4375 1.8125 -1 1 C-0.67 0.67 -0.34 0.34 0 0 Z " fill="#232528" transform="translate(182,228)"/>
<path d="M0 0 C1.65 0 3.3 0 5 0 C3.61990379 3.33523252 2.15049348 5.18607951 -1 7 C-1.99 6.67 -2.98 6.34 -4 6 C-4 5.01 -4 4.02 -4 3 C-3.01 2.67 -2.02 2.34 -1 2 C-0.67 1.34 -0.34 0.68 0 0 Z " fill="#23272A" transform="translate(153,227)"/>
<path d="M0 0 C1.98 0.66 3.96 1.32 6 2 C5.34 3.65 4.68 5.3 4 7 C2.35 6.67 0.7 6.34 -1 6 C-1.042721 4.33388095 -1.04063832 2.66617115 -1 1 C-0.67 0.67 -0.34 0.34 0 0 Z " fill="#E5E6E8" transform="translate(295,224)"/>
<path d="M0 0 C1.258125 -0.04125 2.51625 -0.0825 3.8125 -0.125 C4.52019531 -0.14820313 5.22789062 -0.17140625 5.95703125 -0.1953125 C8 0 8 0 11 2 C10.01 3.485 10.01 3.485 9 5 C4.545 4.01 4.545 4.01 0 3 C0 2.01 0 1.02 0 0 Z " fill="#0E1114" transform="translate(445,204)"/>
<path d="M0 0 C1.32 0 2.64 0 4 0 C4 1.32 4 2.64 4 4 C4.99 4.33 5.98 4.66 7 5 C4.09399739 6.25664978 2.20395416 7 -1 7 C-1 6.34 -1 5.68 -1 5 C-1.66 4.67 -2.32 4.34 -3 4 C-2.01 4 -1.02 4 0 4 C0 2.68 0 1.36 0 0 Z " fill="#404142" transform="translate(463,226)"/>
<path d="M0 0 C7.75 -0.125 7.75 -0.125 10 1 C9.67 2.32 9.34 3.64 9 5 C5.7 4.34 2.4 3.68 -1 3 C-0.67 2.01 -0.34 1.02 0 0 Z " fill="#0A0D10" transform="translate(398,204)"/>
<path d="M0 0 C1.32 0 2.64 0 4 0 C3.62403791 2.78211944 3.32681541 4.5879284 1.5625 6.8125 C0 8 0 8 -2 8 C-2 7.34 -2 6.68 -2 6 C-2.66 5.67 -3.32 5.34 -4 5 C-3.525625 4.54625 -3.05125 4.0925 -2.5625 3.625 C-0.90972192 2.06741796 -0.90972192 2.06741796 0 0 Z " fill="#1D1F24" transform="translate(408,225)"/>
<path d="M0 0 C0.33 0 0.66 0 1 0 C1.59925094 6.23220974 1.59925094 6.23220974 -1 9.5625 C-5.34543169 11.64468602 -7.51091363 10.52172419 -12 9 C-12 8.67 -12 8.34 -12 8 C-10.56342755 7.66269158 -9.12569907 7.33030409 -7.6875 7 C-6.88699219 6.814375 -6.08648437 6.62875 -5.26171875 6.4375 C-3 6 -3 6 0 6 C0 4.02 0 2.04 0 0 Z " fill="#1E2124" transform="translate(348,223)"/>
<path d="M0 0 C-0.165 0.515625 -0.33 1.03125 -0.5 1.5625 C-1.15049 4.73363876 -1.0620734 7.77218334 -1 11 C-2 9 -3 7 -4 5 C-6.02463255 4.34786708 -6.02463255 4.34786708 -8 4 C-8 3.01 -8 2.02 -8 1 C-5.23735711 0.40267181 -2.83967231 0 0 0 Z " fill="#0E1011" transform="translate(205,204)"/>
<path d="M0 0 C2.31 0.33 4.62 0.66 7 1 C6.4375 2.9375 6.4375 2.9375 5 5 C1.375 5.75 1.375 5.75 -2 6 C-1.34 4.02 -0.68 2.04 0 0 Z " fill="#E6E9ED" transform="translate(401,225)"/>
<path d="M0 0 C1.98 0.66 3.96 1.32 6 2 C6 3.98 6 5.96 6 8 C4.33333333 8 2.66666667 8 1 8 C0.67 5.36 0.34 2.72 0 0 Z " fill="#080809" transform="translate(92,209)"/>
<path d="M0 0 C3.3 0 6.6 0 10 0 C10 0.99 10 1.98 10 3 C9.195625 3.12375 8.39125 3.2475 7.5625 3.375 C6.2940625 3.684375 6.2940625 3.684375 5 4 C4.67 4.66 4.34 5.32 4 6 C4 5.34 4 4.68 4 4 C3.34 3.67 2.68 3.34 2 3 C1.34 2.01 0.68 1.02 0 0 Z " fill="#D6D9DD" transform="translate(364,234)"/>
<path d="M0 0 C2.31 0.33 4.62 0.66 7 1 C7.33 2.65 7.66 4.3 8 6 C7.01 6.33 6.02 6.66 5 7 C4.67 6.34 4.34 5.68 4 5 C3.01 5 2.02 5 1 5 C0.67 3.35 0.34 1.7 0 0 Z " fill="#0E0F11" transform="translate(90,205)"/>
<path d="M0 0 C0.33 0 0.66 0 1 0 C1.33 2.97 1.66 5.94 2 9 C2.99 9.33 3.98 9.66 5 10 C5 10.99 5 11.98 5 13 C3.35 13.33 1.7 13.66 0 14 C-1.10370043 10.6888987 -0.92673641 8.75251051 -0.5625 5.3125 C-0.46066406 4.31863281 -0.35882813 3.32476562 -0.25390625 2.30078125 C-0.17011719 1.54152344 -0.08632812 0.78226563 0 0 Z " fill="#1D1E22" transform="translate(190,221)"/>
<path d="M0 0 C0.33 1.32 0.66 2.64 1 4 C-0.6875 5.625 -0.6875 5.625 -3 7 C-5.75 6.1875 -5.75 6.1875 -8 5 C-3.375 0 -3.375 0 0 0 Z " fill="#212226" transform="translate(227,204)"/>
<path d="M0 0 C2.97 0 5.94 0 9 0 C9 1.32 9 2.64 9 4 C6.03 4 3.06 4 0 4 C0.99 3.67 1.98 3.34 3 3 C3 2.34 3 1.68 3 1 C2.01 0.67 1.02 0.34 0 0 Z " fill="#2C2E30" transform="translate(293,204)"/>
<path d="M0 0 C0 0.99 0 1.98 0 3 C-2.97 3 -5.94 3 -9 3 C-9.33 3.66 -9.66 4.32 -10 5 C-11.32 4.67 -12.64 4.34 -14 4 C-14 3.01 -14 2.02 -14 1 C-12.04175306 0.83232136 -10.08339945 0.66588795 -8.125 0.5 C-6.48917969 0.36078125 -6.48917969 0.36078125 -4.8203125 0.21875 C-3.21670436 0.09437042 -1.60842449 0 0 0 Z " fill="#DADBDF" transform="translate(302,233)"/>
<path d="M0 0 C0.33 0 0.66 0 1 0 C1.2475 0.928125 1.495 1.85625 1.75 2.8125 C3.06454245 6.16458325 3.97963384 7.1877803 7 9 C5.35 9.66 3.7 10.32 2 11 C1.731875 10.030625 1.46375 9.06125 1.1875 8.0625 C0.795625 7.051875 0.40375 6.04125 0 5 C-0.99 4.67 -1.98 4.34 -3 4 C-2.34 3.67 -1.68 3.34 -1 3 C-0.67 2.01 -0.34 1.02 0 0 Z M-2 7 C0 8 0 8 0 8 Z " fill="#DADBDC" transform="translate(436,209)"/>
<path d="M0 0 C1.98 0 3.96 0 6 0 C6 0.99 6 1.98 6 3 C5.071875 3.4021875 5.071875 3.4021875 4.125 3.8125 C1.7004767 4.95556848 1.7004767 4.95556848 0 8 C-0.66 7.67 -1.32 7.34 -2 7 C-1.125 2.25 -1.125 2.25 0 0 Z " fill="#E5E7EA" transform="translate(444,207)"/>
<path d="M0 0 C0.33 0.99 0.66 1.98 1 3 C3.01508358 3.73323796 3.01508358 3.73323796 5 4 C4.01 4.495 4.01 4.495 3 5 C3 5.66 3 6.32 3 7 C1.02 7.99 1.02 7.99 -1 9 C-0.67 7.68 -0.34 6.36 0 5 C-0.66 5 -1.32 5 -2 5 C-2.33 6.32 -2.66 7.64 -3 9 C-3 7.35 -3 5.7 -3 4 C-2.34 3.67 -1.68 3.34 -1 3 C-0.67 2.01 -0.34 1.02 0 0 Z " fill="#D9DCE0" transform="translate(415,205)"/>
<path d="M0 0 C0.6875 1.8125 0.6875 1.8125 1 4 C-0.3125 5.75 -0.3125 5.75 -2 7 C-2.66 7 -3.32 7 -4 7 C-4 6.01 -4 5.02 -4 4 C-5.98 4.99 -5.98 4.99 -8 6 C-3.38461538 0 -3.38461538 0 0 0 Z " fill="#191C1E" transform="translate(364,204)"/>
<path d="M0 0 C2.475 0.99 2.475 0.99 5 2 C4.525625 2.45375 4.05125 2.9075 3.5625 3.375 C1.90972192 4.93258204 1.90972192 4.93258204 1 7 C0.34 6.34 -0.32 5.68 -1 5 C-2.32 5 -3.64 5 -5 5 C-3.35 3.35 -1.7 1.7 0 0 Z " fill="#1C1D20" transform="translate(121,204)"/>
<path d="M0 0 C1.32 0 2.64 0 4 0 C5.18681726 3.56045177 5.09689832 6.43808337 5.0625 10.1875 C5.05347656 11.45980469 5.04445312 12.73210937 5.03515625 14.04296875 C5.02355469 15.01878906 5.01195312 15.99460938 5 17 C4.67 17 4.34 17 4 17 C4 12.71 4 8.42 4 4 C2.68 4 1.36 4 0 4 C0 2.68 0 1.36 0 0 Z " fill="#535558" transform="translate(180,189)"/>
<path d="M0 0 C2.97 0 5.94 0 9 0 C9 0.99 9 1.98 9 3 C5.7 3 2.4 3 -1 3 C-0.67 2.01 -0.34 1.02 0 0 Z " fill="#070A0E" transform="translate(397,231)"/>
<path d="M0 0 C0.33 0.66 0.66 1.32 1 2 C1.66 2 2.32 2 3 2 C3.66 3.32 4.32 4.64 5 6 C6.65 6 8.3 6 10 6 C9.67 6.66 9.34 7.32 9 8 C3.52887538 8.36474164 3.52887538 8.36474164 1.1875 6.75 C-0.12817082 4.81111669 -0.6908485 3.31863625 -1 1 C-0.67 0.67 -0.34 0.34 0 0 Z " fill="#E1E4E5" transform="translate(171,223)"/>
<path d="M0 0 C0.33 0 0.66 0 1 0 C1.32712342 6.13053511 1.39366878 10.62669111 -2 16 C-2.66 15.01 -3.32 14.02 -4 13 C-3.125 10.3125 -3.125 10.3125 -2 8 C-1.34 8 -0.68 8 0 8 C0 5.36 0 2.72 0 0 Z " fill="#D3D5D8" transform="translate(353,215)"/>
<path d="M0 0 C0.66 0 1.32 0 2 0 C1 3 1 3 -1 4 C-3.6723621 4.13415472 -6.32250488 4.04318541 -9 4 C-8.67 3.01 -8.34 2.02 -8 1 C-6.865625 1.020625 -5.73125 1.04125 -4.5625 1.0625 C-1.18424326 1.41577477 -1.18424326 1.41577477 0 0 Z " fill="#090A0F" transform="translate(92,221)"/>
<path d="M0 0 C3.05082939 1.01694313 3.90372675 1.72144212 6 4 C6.66 4.66 7.32 5.32 8 6 C7.34 6.66 6.68 7.32 6 8 C3.875 7.625 3.875 7.625 2 7 C1.34 4.69 0.68 2.38 0 0 Z " fill="#E3E7E9" transform="translate(354,228)"/>
<path d="M0 0 C0.33 0 0.66 0 1 0 C2.7578125 5.95703125 2.7578125 5.95703125 3 8 C2.01 9.485 2.01 9.485 1 11 C-0.32 10.34 -1.64 9.68 -3 9 C-2.01 6.03 -1.02 3.06 0 0 Z " fill="#E1E5E7" transform="translate(434,225)"/>
<path d="M0 0 C2.4375 0.375 2.4375 0.375 5 1 C5.33 1.66 5.66 2.32 6 3 C4.6875 4.5 4.6875 4.5 3 6 C2.01 6 1.02 6 0 6 C0 4.02 0 2.04 0 0 Z " fill="#0B0D0D" transform="translate(437,208)"/>
<path d="M0 0 C-0.99 0.33 -1.98 0.66 -3 1 C-3 1.66 -3 2.32 -3 3 C-4.65 3.66 -6.3 4.32 -8 5 C-8 4.34 -8 3.68 -8 3 C-8.66 3 -9.32 3 -10 3 C-9.67 2.01 -9.34 1.02 -9 0 C-8.01 0 -7.02 0 -6 0 C-3.50907189 -1.24546405 -2.58919267 -0.7767578 0 0 Z " fill="#212325" transform="translate(56,205)"/>
<path d="M0 0 C2.31 0.66 4.62 1.32 7 2 C7 2.33 7 2.66 7 3 C5.7625 3.12375 4.525 3.2475 3.25 3.375 C0.1237803 3.75746305 -2.28879237 4.30549523 -5 6 C-5 4.68 -5 3.36 -5 2 C-4.01 1.67 -3.02 1.34 -2 1 C-1.34 1.33 -0.68 1.66 0 2 C0 1.34 0 0.68 0 0 Z " fill="#DDE0E4" transform="translate(141,201)"/>
<path d="M0 0 C0.33 0 0.66 0 1 0 C1 2.64 1 5.28 1 8 C-2.3 7.34 -5.6 6.68 -9 6 C-9 5.67 -9 5.34 -9 5 C-7.88625 4.731875 -6.7725 4.46375 -5.625 4.1875 C-1.78159049 3.34190981 -1.78159049 3.34190981 0 0 Z " fill="#E7E9ED" transform="translate(183,198)"/>
<path d="M0 0 C0 0.99 0 1.98 0 3 C-4.68965706 4.11658501 -7.53763531 3.80619523 -12 2 C-12 1.67 -12 1.34 -12 1 C-10.37512529 0.83211627 -8.75009558 0.66573213 -7.125 0.5 C-6.22007812 0.4071875 -5.31515625 0.314375 -4.3828125 0.21875 C-2 0 -2 0 0 0 Z " fill="#D1D5D8" transform="translate(154,233)"/>
<path d="M0 0 C0.66 0.33 1.32 0.66 2 1 C2.25 3.8125 2.25 3.8125 2 7 C0 8.875 0 8.875 -2 10 C-2.25 3.375 -2.25 3.375 0 0 Z " fill="#121516" transform="translate(437,220)"/>
<path d="M0 0 C1 3 1 3 1 5 C0.34 5 -0.32 5 -1 5 C-1 5.66 -1 6.32 -1 7 C-0.34 7.33 0.32 7.66 1 8 C-0.32 8.99 -1.64 9.98 -3 11 C-3.36923077 4.6 -3.36923077 4.6 -1.5 1.5625 C-1.005 1.046875 -0.51 0.53125 0 0 Z " fill="#101114" transform="translate(77,207)"/>
<path d="M0 0 C0.33 0.66 0.66 1.32 1 2 C0.0625 4.625 0.0625 4.625 -1 7 C-1.66 7 -2.32 7 -3 7 C-2.67 7.99 -2.34 8.98 -2 10 C-2.99 9.67 -3.98 9.34 -5 9 C-5 8.34 -5 7.68 -5 7 C-5.66 6.67 -6.32 6.34 -7 6 C-6.21625 5.566875 -5.4325 5.13375 -4.625 4.6875 C-1.78301625 3.10779753 -1.78301625 3.10779753 0 0 Z " fill="#E6E7EA" transform="translate(98,218)"/>
<path d="M0 0 C5.43806647 -0.36253776 5.43806647 -0.36253776 7.9375 1.25 C9 3 9 3 8.6875 5.1875 C8.3471875 6.0846875 8.3471875 6.0846875 8 7 C7.34 6.01 6.68 5.02 6 4 C3.94074861 3.27617533 3.94074861 3.27617533 2 3 C2.33 2.34 2.66 1.68 3 1 C2.01 0.67 1.02 0.34 0 0 Z " fill="#D3D5D9" transform="translate(51,208)"/>
<path d="M0 0 C0.99 0.33 1.98 0.66 3 1 C2.4140625 7.15234375 2.4140625 7.15234375 2 9 C1.01 9.495 1.01 9.495 0 10 C-0.19412181 8.52168779 -0.38012131 7.04230684 -0.5625 5.5625 C-0.66691406 4.73878906 -0.77132812 3.91507813 -0.87890625 3.06640625 C-0.91886719 2.38449219 -0.95882812 1.70257813 -1 1 C-0.67 0.67 -0.34 0.34 0 0 Z " fill="#07090A" transform="translate(237,206)"/>
<path d="M0 0 C2.31 0 4.62 0 7 0 C5 3 5 3 3 4 C3 4.33 3 4.66 3 5 C0.69 5 -1.62 5 -4 5 C-2.68 4.67 -1.36 4.34 0 4 C0 2.68 0 1.36 0 0 Z " fill="#303131" transform="translate(87,230)"/>
<path d="M0 0 C-0.66 2.31 -1.32 4.62 -2 7 C-2.66 6.34 -3.32 5.68 -4 5 C-4.99 5 -5.98 5 -7 5 C-6.1875 3.0625 -6.1875 3.0625 -5 1 C-2 0 -2 0 0 0 Z " fill="#DBDCDE" transform="translate(79,223)"/>
<path d="M0 0 C0.99 0 1.98 0 3 0 C3 1.98 3 3.96 3 6 C3.66 6.33 4.32 6.66 5 7 C4.34 7.66 3.68 8.32 3 9 C0.90250005 6.64031256 0.03094296 5.45383006 -0.1875 2.25 C-0.125625 1.5075 -0.06375 0.765 0 0 Z " fill="#EAEDEF" transform="translate(139,221)"/>
<path d="M0 0 C1.98 0 3.96 0 6 0 C6 1.32 6 2.64 6 4 C4.02 4 2.04 4 0 4 C0 2.68 0 1.36 0 0 Z " fill="#202325" transform="translate(467,189)"/>
<path d="M0 0 C1.65 0 3.3 0 5 0 C4.67 1.32 4.34 2.64 4 4 C3.38125 4.12375 2.7625 4.2475 2.125 4.375 C-0.19120832 4.87197356 -0.19120832 4.87197356 -2 7 C-1.42415568 4.61435923 -0.77772405 2.33317216 0 0 Z " fill="#DFE3E6" transform="translate(35,227)"/>
<path d="M0 0 C0.99 0 1.98 0 3 0 C3.33 1.32 3.66 2.64 4 4 C2.35 4.33 0.7 4.66 -1 5 C-0.67 3.35 -0.34 1.7 0 0 Z " fill="#E2E4E4" transform="translate(428,226)"/>
<path d="M0 0 C0 0.66 0 1.32 0 2 C-0.99 2 -1.98 2 -3 2 C-2.67 2.99 -2.34 3.98 -2 5 C-4.97 4.505 -4.97 4.505 -8 4 C-8 3.01 -8 2.02 -8 1 C-5.23735711 0.40267181 -2.83967231 0 0 0 Z " fill="#161A1C" transform="translate(44,204)"/>
<path d="M0 0 C0.928125 0.165 1.85625 0.33 2.8125 0.5 C5.95621353 1.07748388 5.95621353 1.07748388 9 1 C8.34 2.32 7.68 3.64 7 5 C4.36 4.01 1.72 3.02 -1 2 C-0.67 1.34 -0.34 0.68 0 0 Z " fill="#DEE2E4" transform="translate(343,203)"/>
<path d="M0 0 C1.69752187 0.25245197 3.38471545 0.57645775 5.0625 0.9375 C5.98160156 1.13214844 6.90070312 1.32679688 7.84765625 1.52734375 C8.91306641 1.76130859 8.91306641 1.76130859 10 2 C10 2.33 10 2.66 10 3 C6.7 3.66 3.4 4.32 0 5 C-0.33 3.68 -0.66 2.36 -1 1 C-0.67 0.67 -0.34 0.34 0 0 Z " fill="#E5E6EA" transform="translate(49,201)"/>
<path d="M0 0 C1.32 0 2.64 0 4 0 C4 0.99 4 1.98 4 3 C4.66 3 5.32 3 6 3 C5.67 3.66 5.34 4.32 5 5 C2.36 5 -0.28 5 -3 5 C-2.505 4.54625 -2.01 4.0925 -1.5 3.625 C0.22609337 2.12364481 0.22609337 2.12364481 0 0 Z " fill="#DADDE2" transform="translate(120,226)"/>
<path d="M0 0 C0.66 0 1.32 0 2 0 C2.33 0.99 2.66 1.98 3 3 C1.0625 5.6875 1.0625 5.6875 -1 8 C-2.0625 6.125 -2.0625 6.125 -3 4 C-2.67 3.34 -2.34 2.68 -2 2 C-1.34 2 -0.68 2 0 2 C0 1.34 0 0.68 0 0 Z " fill="#E8EBEF" transform="translate(388,205)"/>
<path d="M0 0 C2.97 0.33 5.94 0.66 9 1 C9 1.66 9 2.32 9 3 C5.7 3 2.4 3 -1 3 C-0.67 2.01 -0.34 1.02 0 0 Z " fill="#060A0C" transform="translate(333,231)"/>
<path d="M0 0 C1.65 0.33 3.3 0.66 5 1 C4.67 2.98 4.34 4.96 4 7 C2.35 5.35 0.7 3.7 -1 2 C-0.67 1.34 -0.34 0.68 0 0 Z " fill="#050608" transform="translate(454,225)"/>
<path d="M0 0 C1.5 1.0625 1.5 1.0625 3 3 C3.1875 6.6875 3.1875 6.6875 3 10 C2.67 10 2.34 10 2 10 C2 8.02 2 6.04 2 4 C0.68 4.33 -0.64 4.66 -2 5 C-2.33 3.68 -2.66 2.36 -3 1 C-2.01 0.67 -1.02 0.34 0 0 Z " fill="#414346" transform="translate(451,214)"/>
<path d="M0 0 C0.33 0.66 0.66 1.32 1 2 C1.66 2 2.32 2 3 2 C3 2.66 3 3.32 3 4 C-0.46153846 7 -0.46153846 7 -3 7 C-2.625 4.0625 -2.625 4.0625 -2 1 C-1.34 0.67 -0.68 0.34 0 0 Z " fill="#07070A" transform="translate(221,208)"/>
<path d="M0 0 C-0.33 1.65 -0.66 3.3 -1 5 C-1.99 5 -2.98 5 -4 5 C-4 4.34 -4 3.68 -4 3 C-4.66 2.67 -5.32 2.34 -6 2 C-3 0 -3 0 0 0 Z " fill="#202227" transform="translate(398,204)"/>
<path d="M0 0 C0.66 0 1.32 0 2 0 C2 0.66 2 1.32 2 2 C2.99 2.33 3.98 2.66 5 3 C2.34771188 4.07525194 -0.28368454 5.09456151 -3 6 C-2.42655063 3.13275314 -2.1385485 2.1385485 0 0 Z " fill="#D6D9DC" transform="translate(22,187)"/>
<path d="M0 0 C1.485 0.99 1.485 0.99 3 2 C2.625 4.4375 2.625 4.4375 2 7 C1.01 7.495 1.01 7.495 0 8 C-0.79953138 4.71303767 -1.09658936 3.28976808 0 0 Z " fill="#D0D2D6" transform="translate(94,236)"/>
<path d="M0 0 C1.98 0 3.96 0 6 0 C6.33 0.99 6.66 1.98 7 3 C4.36 3 1.72 3 -1 3 C-0.67 2.01 -0.34 1.02 0 0 Z " fill="#05090A" transform="translate(143,231)"/>
<path d="M0 0 C1.2065625 0.0309375 1.2065625 0.0309375 2.4375 0.0625 C0.5625 1.125 0.5625 1.125 -1.5625 2.0625 C-2.2225 1.7325 -2.8825 1.4025 -3.5625 1.0625 C-2.5625 0.0625 -2.5625 0.0625 0 0 Z M-6.5625 0.0625 C-5.5725 1.0525 -4.5825 2.0425 -3.5625 3.0625 C-4.5525 3.3925 -5.5425 3.7225 -6.5625 4.0625 C-7.5525 3.0725 -8.5425 2.0825 -9.5625 1.0625 C-8.5725 0.7325 -7.5825 0.4025 -6.5625 0.0625 Z " fill="#24282B" transform="translate(445.5625,229.9375)"/>
<path d="M0 0 C0.99 0.33 1.98 0.66 3 1 C3 1.66 3 2.32 3 3 C3.66 3 4.32 3 5 3 C5 2.34 5 1.68 5 1 C5.99 0.67 6.98 0.34 8 0 C8 1.32 8 2.64 8 4 C6.02 4.33 4.04 4.66 2 5 C1.34 3.35 0.68 1.7 0 0 Z " fill="#1C1F20" transform="translate(387,225)"/>
<path d="M0 0 C1.231394 2.46278801 1.07159196 4.2795055 1 7 C-0.32 7 -1.64 7 -3 7 C-2.25 2.25 -2.25 2.25 0 0 Z " fill="#E7EAEC" transform="translate(142,208)"/>
<path d="M0 0 C0.99 0.66 1.98 1.32 3 2 C3.1875 4.625 3.1875 4.625 3 7 C1.0625 6.1875 1.0625 6.1875 -1 5 C-1.33 4.01 -1.66 3.02 -2 2 C-1.34 1.34 -0.68 0.68 0 0 Z " fill="#101114" transform="translate(187,227)"/>
<path d="M0 0 C1.65 0 3.3 0 5 0 C5.33 0.66 5.66 1.32 6 2 C5.34 2.66 4.68 3.32 4 4 C1.375 3.625 1.375 3.625 -1 3 C-0.67 2.01 -0.34 1.02 0 0 Z " fill="#272A2A" transform="translate(327,224)"/>
<path d="M0 0 C1.32 0 2.64 0 4 0 C4.66 1.65 5.32 3.3 6 5 C4.02 4.34 2.04 3.68 0 3 C0 2.01 0 1.02 0 0 Z " fill="#1E1F20" transform="translate(333,218)"/>
<path d="M0 0 C2.31 0 4.62 0 7 0 C7 0.99 7 1.98 7 3 C5.02 3 3.04 3 1 3 C0.67 2.01 0.34 1.02 0 0 Z " fill="#05090C" transform="translate(142,204)"/>
<path d="M0 0 C0.99 0.33 1.98 0.66 3 1 C3 1.99 3 2.98 3 4 C4.32 4.33 5.64 4.66 7 5 C5.824375 4.9690625 5.824375 4.9690625 4.625 4.9375 C2.01885039 4.81315937 2.01885039 4.81315937 0 6 C-1.125 2.25 -1.125 2.25 0 0 Z " fill="#DFE3E5" transform="translate(33,204)"/>
<path d="M0 0 C2.31 0 4.62 0 7 0 C6.67 0.99 6.34 1.98 6 3 C4.02 3 2.04 3 0 3 C0 2.01 0 1.02 0 0 Z " fill="#060A0D" transform="translate(364,204)"/>
<path d="M0 0 C1.98 0 3.96 0 6 0 C6 0.66 6 1.32 6 2 C3 4 3 4 0 4 C0 2.68 0 1.36 0 0 Z " fill="#090A0D" transform="translate(265,204)"/>
<path d="M0 0 C0.33 0.66 0.66 1.32 1 2 C3.52733235 2.65555119 3.52733235 2.65555119 6 3 C5.67 3.66 5.34 4.32 5 5 C0.25 4.25 0.25 4.25 -2 2 C-1.34 2 -0.68 2 0 2 C0 1.34 0 0.68 0 0 Z " fill="#EAEEF1" transform="translate(36,200)"/>
<path d="M0 0 C-0.66 1.32 -1.32 2.64 -2 4 C-4.31 3.34 -6.62 2.68 -9 2 C-6.32750728 -0.67249272 -3.5165484 -1.7582742 0 0 Z " fill="#E2E4E7" transform="translate(275,202)"/>
<path d="M0 0 C1.32 0 2.64 0 4 0 C4 1.98 4 3.96 4 6 C3.34 6 2.68 6 2 6 C0 3 0 3 0 0 Z " fill="#090A0C" transform="translate(289,196)"/>
<path d="M0 0 C0.66 0 1.32 0 2 0 C2.33 0.66 2.66 1.32 3 2 C3.99 2.33 4.98 2.66 6 3 C4.68 3.99 3.36 4.98 2 6 C2 5.34 2 4.68 2 4 C0.68 4.33 -0.64 4.66 -2 5 C-1.67 4.34 -1.34 3.68 -1 3 C-0.34 3 0.32 3 1 3 C0.67 2.01 0.34 1.02 0 0 Z " fill="#1B1C1C" transform="translate(77,230)"/>
<path d="M0 0 C2.31 0.33 4.62 0.66 7 1 C7 2.32 7 3.64 7 5 C3.34683329 3.75023244 2.21934164 3.32901247 0 0 Z " fill="#25282B" transform="translate(165,229)"/>
<path d="M0 0 C2.4375 0.75 2.4375 0.75 5 2 C5.8125 4.125 5.8125 4.125 6 6 C5.01 6 4.02 6 3 6 C2.01 4.02 1.02 2.04 0 0 Z " fill="#1E2223" transform="translate(132,225)"/>
<path d="M0 0 C0.625 1.875 0.625 1.875 1 4 C0.34 4.66 -0.32 5.32 -1 6 C-3.125 5.625 -3.125 5.625 -5 5 C-4.34 4.01 -3.68 3.02 -3 2 C-2.01 2 -1.02 2 0 2 C0 1.34 0 0.68 0 0 Z " fill="#343537" transform="translate(348,208)"/>
<path d="M0 0 C4.51720311 -0.36625971 4.51720311 -0.36625971 6.8125 1.375 C8 3 8 3 8 5 C7.01 5 6.02 5 5 5 C5 4.34 5 3.68 5 3 C4.34 3 3.68 3 3 3 C3 2.34 3 1.68 3 1 C2.01 0.67 1.02 0.34 0 0 Z " fill="#D8DBDD" transform="translate(228,207)"/>
<path d="M0 0 C-0.66 1.32 -1.32 2.64 -2 4 C-3.32 3.67 -4.64 3.34 -6 3 C-6 2.01 -6 1.02 -6 0 C-2.25 -1.125 -2.25 -1.125 0 0 Z " fill="#161A19" transform="translate(24,205)"/>
<path d="M0 0 C2.625 -0.1875 2.625 -0.1875 5 0 C4.67 1.65 4.34 3.3 4 5 C2.02 4.34 0.04 3.68 -2 3 C-1.34 2.01 -0.68 1.02 0 0 Z " fill="#18191C" transform="translate(87,204)"/>
<path d="M0 0 C0 0.66 0 1.32 0 2 C0.66 2.33 1.32 2.66 2 3 C-0.7219246 4.3609623 -2.1831957 3.70366248 -5.125 3.0625 C-6.03507812 2.86785156 -6.94515625 2.67320312 -7.8828125 2.47265625 C-8.58148438 2.31667969 -9.28015625 2.16070312 -10 2 C-10 1.67 -10 1.34 -10 1 C-2.25 0 -2.25 0 0 0 Z " fill="#CFD3D6" transform="translate(456,202)"/>
<path d="M0 0 C0.2475 0.639375 0.495 1.27875 0.75 1.9375 C1.81562433 4.18741541 1.81562433 4.18741541 4.125 4.75 C4.74375 4.8325 5.3625 4.915 6 5 C4.68 5 3.36 5 2 5 C1.67 5.99 1.34 6.98 1 8 C-0.42944945 5.64561267 -1.08661261 4.51967567 -0.625 1.75 C-0.41875 1.1725 -0.2125 0.595 0 0 Z " fill="#D9DADD" transform="translate(104,200)"/>
<path d="M0 0 C0.66 0.33 1.32 0.66 2 1 C2.33 1.99 2.66 2.98 3 4 C3.99 4.33 4.98 4.66 6 5 C3.625 5.625 3.625 5.625 1 6 C0.34 5.34 -0.32 4.68 -1 4 C-0.625 1.875 -0.625 1.875 0 0 Z " fill="#07080A" transform="translate(420,192)"/>
<path d="M0 0 C0 1.65 0 3.3 0 5 C-1.65 5.33 -3.3 5.66 -5 6 C-2.84615385 0 -2.84615385 0 0 0 Z " fill="#05070C" transform="translate(100,239)"/>
<path d="M0 0 C0.66 0.99 1.32 1.98 2 3 C1.34 3 0.68 3 0 3 C-0.103125 3.639375 -0.20625 4.27875 -0.3125 4.9375 C-0.539375 5.618125 -0.76625 6.29875 -1 7 C-1.99 7.33 -2.98 7.66 -4 8 C-3.50168276 4.31245243 -2.89932357 2.39509338 0 0 Z " fill="#1C1C1F" transform="translate(452,226)"/>
<path d="M0 0 C0.99 0.99 1.98 1.98 3 3 C2.01 3 1.02 3 0 3 C-0.33 3.99 -0.66 4.98 -1 6 C-1.99 5.01 -2.98 4.02 -4 3 C-2.68 2.01 -1.36 1.02 0 0 Z " fill="#202426" transform="translate(224,227)"/>
<path d="M0 0 C0.66 1.32 1.32 2.64 2 4 C0.68 4.33 -0.64 4.66 -2 5 C-2.33 3.68 -2.66 2.36 -3 1 C-2.01 0.67 -1.02 0.34 0 0 Z " fill="#1C1F20" transform="translate(152,229)"/>
<path d="M0 0 C0.66 0 1.32 0 2 0 C2 1.65 2 3.3 2 5 C1.01 5 0.02 5 -1 5 C-1.33 5.66 -1.66 6.32 -2 7 C-2 5.68 -2 4.36 -2 3 C-1.34 3 -0.68 3 0 3 C0 2.01 0 1.02 0 0 Z " fill="#060A0B" transform="translate(346,224)"/>
<path d="M0 0 C1.98 0.99 1.98 0.99 4 2 C3.34 3.32 2.68 4.64 2 6 C1.34 6 0.68 6 0 6 C0 4.02 0 2.04 0 0 Z " fill="#050908" transform="translate(220,224)"/>
<path d="M0 0 C0.99 0.99 1.98 1.98 3 3 C-0.75 6 -0.75 6 -3 6 C-2.67 4.68 -2.34 3.36 -2 2 C-1.34 2 -0.68 2 0 2 C0 1.34 0 0.68 0 0 Z " fill="#101113" transform="translate(186,222)"/>
<path d="M0 0 C0.99 0 1.98 0 3 0 C3.33 1.32 3.66 2.64 4 4 C3.01 4.33 2.02 4.66 1 5 C0.01 4.01 -0.98 3.02 -2 2 C-1.34 2 -0.68 2 0 2 C0 1.34 0 0.68 0 0 Z " fill="#F5F5F9" transform="translate(337,208)"/>
<path d="M0 0 C1.32 0.66 2.64 1.32 4 2 C3.34 3.32 2.68 4.64 2 6 C1.01 5.34 0.02 4.68 -1 4 C-0.67 2.68 -0.34 1.36 0 0 Z " fill="#1E2022" transform="translate(234,204)"/>
<path d="M0 0 C1.32 0.33 2.64 0.66 4 1 C4 2.65 4 4.3 4 6 C2.68 5.34 1.36 4.68 0 4 C0 2.68 0 1.36 0 0 Z " fill="#171B1D" transform="translate(26,190)"/>
</svg>
